<?xml version="1.0" encoding="UTF-8"?>
<svg version="1.1" xmlns="http://www.w3.org/2000/svg" width="512" height="512">
<path d="M0 0 C1.45108658 0.00273422 1.45108658 0.00273422 2.93148804 0.00552368 C17.26206519 0.05094431 31.21360797 0.55035686 45.3125 3.3125 C46.22547852 3.47878906 47.13845703 3.64507812 48.07910156 3.81640625 C58.06493184 5.65366293 67.61205643 7.96539229 77.14868164 11.4699707 C90.93201067 16.5294734 103.68062548 17.5689496 118.3125 17.3125 C118.28607422 18.043479 118.25964844 18.77445801 118.23242188 19.52758789 C118.21002538 25.25524538 118.21002538 25.25524538 120.90234375 30.05810547 C123.14463053 31.48284771 125.40275742 32.63152452 127.8125 33.75 C129.55581455 34.65561367 131.29533321 35.56856682 133.03125 36.48828125 C134.35576172 37.17784912 134.35576172 37.17784912 135.70703125 37.88134766 C139.7788872 40.11796868 143.54367134 42.72861416 147.3125 45.4375 C148.01656982 45.9432959 148.72063965 46.4490918 149.44604492 46.97021484 C168.8672405 61.09597274 187.74315478 78.1409248 202.3125 97.3125 C202.72918945 97.85277832 203.14587891 98.39305664 203.57519531 98.94970703 C211.2584873 108.9447116 218.00092968 119.40459036 224.3125 130.3125 C224.70679199 130.98974121 225.10108398 131.66698242 225.50732422 132.36474609 C238.68961173 155.2833756 247.29510918 180.85822563 252.625 206.6875 C252.77243652 207.39817627 252.91987305 208.10885254 253.07177734 208.84106445 C256.05304174 224.46212097 256.68886786 240.07829009 256.625 255.9375 C256.62284485 256.9039444 256.6206897 257.87038879 256.61846924 258.86611938 C256.36042837 331.08996718 225.94245487 393.90404286 175.42529297 444.45092773 C169.11585805 450.64968385 162.44868142 456.10255671 155.3125 461.3125 C154.66732422 461.79138672 154.02214844 462.27027344 153.35742188 462.76367188 C119.16462403 488.07094959 80.22818313 503.61398451 38.3125 510.3125 C37.2620752 510.49055176 36.21165039 510.66860352 35.12939453 510.85205078 C23.78092317 512.59617102 12.52350339 512.70952986 1.0625 512.6875 C0.04737335 512.68728851 -0.9677533 512.68707703 -2.01364136 512.68685913 C-18.23978792 512.65316942 -33.7724224 511.70174529 -49.6875 508.3125 C-50.61127441 508.12526367 -51.53504883 507.93802734 -52.48681641 507.74511719 C-72.40391643 503.65212662 -91.34826102 497.04223276 -109.6875 488.3125 C-110.69756104 487.83925293 -110.69756104 487.83925293 -111.72802734 487.35644531 C-128.97189662 479.24118862 -144.76563279 469.14361049 -159.6875 457.3125 C-160.49550049 456.68021484 -160.49550049 456.68021484 -161.31982422 456.03515625 C-176.15776934 444.34040819 -190.40178974 430.47836605 -201.6875 415.3125 C-202.54784837 414.19245576 -203.40854995 413.07268278 -204.26953125 411.953125 C-211.45142709 402.49852545 -217.72658479 392.57355452 -223.6875 382.3125 C-224.0494043 381.6947168 -224.41130859 381.07693359 -224.78417969 380.44042969 C-246.49010652 342.98991669 -256.16787412 299.66833468 -256 256.6875 C-255.99817719 255.71761139 -255.99635437 254.74772278 -255.99447632 253.7484436 C-255.94908309 239.39693945 -255.4437347 225.43307082 -252.6875 211.3125 C-252.44604248 209.96696045 -252.44604248 209.96696045 -252.19970703 208.59423828 C-241.36520088 148.7182403 -207.30097152 91.36153336 -158.6875 54.3125 C-158.00800293 53.98185547 -157.32850586 53.65121094 -156.62841797 53.31054688 C-154.02308917 51.86153197 -152.48780771 50.71036561 -150.6875 48.3125 C-149.53539837 42.85160722 -149.61150756 37.49701033 -149.6875 31.9375 C-149.67940189 30.42315339 -149.66771892 28.90882146 -149.65234375 27.39453125 C-149.61590143 23.69765997 -149.65344192 20.01205893 -149.6875 16.3125 C-142.4275 16.3125 -135.1675 16.3125 -127.6875 16.3125 C-127.6875 21.9225 -127.6875 27.5325 -127.6875 33.3125 C-126.35074219 32.60222656 -125.01398438 31.89195313 -123.63671875 31.16015625 C-121.88287584 30.23165118 -120.12896611 29.30327232 -118.375 28.375 C-117.05338867 27.67213867 -117.05338867 27.67213867 -115.70507812 26.95507812 C-114.85751953 26.50712891 -114.00996094 26.05917969 -113.13671875 25.59765625 C-112.35643311 25.18394775 -111.57614746 24.77023926 -110.7722168 24.34399414 C-108.6875 23.3125 -108.6875 23.3125 -105.6875 22.3125 C-105.3575 20.3325 -105.0275 18.3525 -104.6875 16.3125 C-103.90632812 16.333125 -103.12515625 16.35375 -102.3203125 16.375 C-93.40842521 16.21621359 -85.72091219 14.31094066 -77.25 11.5625 C-68.624743 8.77237993 -60.066765 6.28460681 -51.1875 4.4375 C-50.29490479 4.24704102 -49.40230957 4.05658203 -48.48266602 3.86035156 C-32.40567025 0.64640537 -16.35413567 -0.06416696 0 0 Z " fill="#E64D19" transform="translate(255.6875,-0.3125)"/>
<path d="M0 0 C1.45108658 0.00273422 1.45108658 0.00273422 2.93148804 0.00552368 C17.26206519 0.05094431 31.21360797 0.55035686 45.3125 3.3125 C46.22547852 3.47878906 47.13845703 3.64507812 48.07910156 3.81640625 C58.06493184 5.65366293 67.61205643 7.96539229 77.14868164 11.4699707 C90.93201067 16.5294734 103.68062548 17.5689496 118.3125 17.3125 C118.28607422 18.043479 118.25964844 18.77445801 118.23242188 19.52758789 C118.21002538 25.25524538 118.21002538 25.25524538 120.90234375 30.05810547 C123.14463053 31.48284771 125.40275742 32.63152452 127.8125 33.75 C129.55581455 34.65561367 131.29533321 35.56856682 133.03125 36.48828125 C134.35576172 37.17784912 134.35576172 37.17784912 135.70703125 37.88134766 C139.7788872 40.11796868 143.54367134 42.72861416 147.3125 45.4375 C148.01656982 45.9432959 148.72063965 46.4490918 149.44604492 46.97021484 C168.8672405 61.09597274 187.74315478 78.1409248 202.3125 97.3125 C202.72918945 97.85277832 203.14587891 98.39305664 203.57519531 98.94970703 C211.2584873 108.9447116 218.00092968 119.40459036 224.3125 130.3125 C224.70679199 130.98974121 225.10108398 131.66698242 225.50732422 132.36474609 C238.68961173 155.2833756 247.29510918 180.85822563 252.625 206.6875 C252.77243652 207.39817627 252.91987305 208.10885254 253.07177734 208.84106445 C256.05304174 224.46212097 256.68886786 240.07829009 256.625 255.9375 C256.62284485 256.9039444 256.6206897 257.87038879 256.61846924 258.86611938 C256.35984504 331.25323899 225.83679842 393.92401889 175.24951172 444.56518555 C160.31402519 459.3125 160.31402519 459.3125 157.3125 459.3125 C157.15982487 450.80672645 157.60580908 442.48035346 158.4140625 434.015625 C158.59333747 432.06085417 158.77260625 430.10608277 158.95165157 428.15129089 C159.14349182 426.06678269 159.33786462 423.98252431 159.53292847 421.89831543 C160.16454782 415.14369522 160.77827365 408.38743758 161.39200401 401.63117218 C161.53494543 400.05760456 161.67805527 398.48405222 161.82132912 396.91051483 C163.32576723 380.37595627 164.70840397 363.83223548 166.06736755 347.28518295 C168.31039232 319.98700565 170.67586997 292.70163188 173.12017822 265.42077637 C174.96162517 244.85960293 176.74725823 224.29457274 178.46484375 203.72265625 C178.55516121 202.64220472 178.64547867 201.5617532 178.73853302 200.44856071 C179.6303466 189.77890454 180.51911838 179.10901264 181.39700603 168.43820095 C181.72293001 164.48477815 182.05179323 160.53160318 182.38125801 156.57847404 C182.53305969 154.74838454 182.68352821 152.91818385 182.83250237 151.08786201 C183.03894044 148.55241703 183.25008275 146.01740073 183.4621582 143.48242188 C183.51879324 142.77195174 183.57542828 142.06148161 183.63377953 141.32948208 C184.26173698 133.935953 185.32757261 126.69945541 186.3125 119.3125 C63.8825 119.3125 -58.5475 119.3125 -184.6875 119.3125 C-183.6975 126.2425 -183.6975 126.2425 -182.6875 133.3125 C-182.37195306 136.32445799 -182.07747636 139.3204996 -181.8371582 142.3371582 C-181.76992585 143.13747215 -181.7026935 143.9377861 -181.63342381 144.76235199 C-181.41452666 147.37902464 -181.20139935 149.99613215 -180.98828125 152.61328125 C-180.83145447 154.50025113 -180.67422736 156.38718778 -180.51663208 158.27409363 C-180.18158805 162.29387364 -179.84895857 166.31384291 -179.51828003 170.33398438 C-178.99268314 176.7217314 -178.46102319 183.10896439 -177.92797852 189.49609375 C-177.83826625 190.57116873 -177.74855398 191.64624371 -177.65612316 192.75389671 C-177.47409697 194.93501717 -177.29204908 197.11613581 -177.10997963 199.29725266 C-176.83501855 202.59304612 -176.56054738 205.88888008 -176.28617859 209.1847229 C-174.60264944 229.39718774 -172.87492497 249.6056859 -171.125 269.8125 C-170.98208188 271.46433475 -170.83916806 273.11616988 -170.69625854 274.76800537 C-168.66366241 298.25178989 -166.59471758 321.73229249 -164.50982666 345.21148682 C-164.06842753 350.18245429 -163.62764102 355.15347595 -163.18701172 360.12451172 C-163.11583382 360.92742393 -163.04465591 361.73033615 -162.97132111 362.55757904 C-162.61832087 366.53958 -162.26538863 370.52158698 -161.91253662 374.50360107 C-161.24255109 382.06298199 -160.57106026 389.62222316 -159.89599609 397.18115234 C-159.28590812 404.01322101 -158.68175584 410.84579292 -158.081604 417.67874146 C-157.8642018 420.14301322 -157.6448299 422.60711218 -157.42327881 425.0710144 C-155.29774213 448.72735869 -155.29774213 448.72735869 -155.6875 459.3125 C-173.38458164 450.84398665 -190.14856479 430.81865262 -201.6875 415.3125 C-202.54784837 414.19245576 -203.40854995 413.07268278 -204.26953125 411.953125 C-211.45142709 402.49852545 -217.72658479 392.57355452 -223.6875 382.3125 C-224.0494043 381.6947168 -224.41130859 381.07693359 -224.78417969 380.44042969 C-246.49010652 342.98991669 -256.16787412 299.66833468 -256 256.6875 C-255.99817719 255.71761139 -255.99635437 254.74772278 -255.99447632 253.7484436 C-255.94908309 239.39693945 -255.4437347 225.43307082 -252.6875 211.3125 C-252.44604248 209.96696045 -252.44604248 209.96696045 -252.19970703 208.59423828 C-241.36520088 148.7182403 -207.30097152 91.36153336 -158.6875 54.3125 C-158.00800293 53.98185547 -157.32850586 53.65121094 -156.62841797 53.31054688 C-154.02308917 51.86153197 -152.48780771 50.71036561 -150.6875 48.3125 C-149.53539837 42.85160722 -149.61150756 37.49701033 -149.6875 31.9375 C-149.67940189 30.42315339 -149.66771892 28.90882146 -149.65234375 27.39453125 C-149.61590143 23.69765997 -149.65344192 20.01205893 -149.6875 16.3125 C-142.4275 16.3125 -135.1675 16.3125 -127.6875 16.3125 C-127.6875 21.9225 -127.6875 27.5325 -127.6875 33.3125 C-126.35074219 32.60222656 -125.01398438 31.89195313 -123.63671875 31.16015625 C-121.88287584 30.23165118 -120.12896611 29.30327232 -118.375 28.375 C-117.05338867 27.67213867 -117.05338867 27.67213867 -115.70507812 26.95507812 C-114.85751953 26.50712891 -114.00996094 26.05917969 -113.13671875 25.59765625 C-112.35643311 25.18394775 -111.57614746 24.77023926 -110.7722168 24.34399414 C-108.6875 23.3125 -108.6875 23.3125 -105.6875 22.3125 C-105.3575 20.3325 -105.0275 18.3525 -104.6875 16.3125 C-103.90632812 16.333125 -103.12515625 16.35375 -102.3203125 16.375 C-93.40842521 16.21621359 -85.72091219 14.31094066 -77.25 11.5625 C-68.624743 8.77237993 -60.066765 6.28460681 -51.1875 4.4375 C-50.29490479 4.24704102 -49.40230957 4.05658203 -48.48266602 3.86035156 C-32.40567025 0.64640537 -16.35413567 -0.06416696 0 0 Z " fill="#F1F1F1" transform="translate(255.6875,-0.3125)"/>
<path d="M0 0 C76.23 0 152.46 0 231 0 C229.81395349 22.53488372 229.81395349 22.53488372 229 33.625 C228.9175 34.81867188 228.835 36.01234375 228.75 37.2421875 C228.6675 38.37140625 228.585 39.500625 228.5 40.6640625 C228.4278125 41.66904785 228.355625 42.6740332 228.28125 43.70947266 C228 46 228 46 227 47 C224.7470898 47.09706134 222.49106821 47.12186638 220.23606873 47.12025452 C219.52059264 47.12110894 218.80511655 47.12196337 218.06795937 47.12284368 C215.65262186 47.12450058 213.23735267 47.11897371 210.82202148 47.11352539 C209.09775799 47.11324354 207.37349438 47.11340121 205.64923096 47.1139679 C200.95314853 47.11425595 196.25709141 47.10835802 191.56101489 47.10139394 C186.65892841 47.09516164 181.75684142 47.0945567 176.85475159 47.09336853 C167.56517104 47.09025485 158.2756022 47.08204096 148.98602682 47.07201904 C138.4130504 47.06085905 127.84007343 47.05534774 117.26709259 47.05032361 C95.51138851 47.03985838 73.75569499 47.02225823 52 47 C52.12117188 48.21582764 52.24234375 49.43165527 52.3671875 50.68432617 C52.81691988 55.20345223 53.26343327 59.72289158 53.70898438 64.24243164 C53.90211879 66.19694548 54.09612127 68.15137376 54.29101562 70.10571289 C54.57130578 72.91790979 54.8484533 75.73040156 55.125 78.54296875 C55.25624268 79.84949654 55.25624268 79.84949654 55.39013672 81.18241882 C55.47021973 82.002892 55.55030273 82.82336517 55.6328125 83.66870117 C55.70387207 84.38595871 55.77493164 85.10321625 55.84814453 85.84220886 C56.01567882 88.22278826 56 90.61353274 56 93 C111.11 93 166.22 93 223 93 C221.85056483 117.13813857 221.85056483 117.13813857 220.94921875 127.375 C220.85040909 128.53376144 220.75159943 129.69252289 220.64979553 130.88639832 C220.33284442 134.59127166 220.01026892 138.29562942 219.6875 142 C219.4642182 144.59803738 219.24124048 147.19610092 219.01855469 149.79418945 C217.97260009 161.96235415 216.90440844 174.12849413 215.81640625 186.29296875 C215.72489792 187.31689728 215.63338959 188.34082581 215.53910828 189.39578247 C215.11567852 194.126866 214.68922741 198.85763987 214.2565918 203.58789062 C213.33635915 213.71877461 212.56964237 223.8428519 212 234 C199.40909723 237.97013835 186.77089161 241.65110132 174 245 C164.8790042 247.39187155 155.81835611 249.89212896 146.8125 252.6875 C139.71151452 254.8821804 132.60553582 257.03341188 125.4375 259 C124.28568237 259.33004028 124.28568237 259.33004028 123.1105957 259.66674805 C122.39218506 259.85922119 121.67377441 260.05169434 120.93359375 260.25 C120.31540771 260.42015625 119.69722168 260.5903125 119.06030273 260.765625 C111.87175909 261.58337614 103.94660479 258.22156187 97.0625 256.375 C96.06017334 256.10755981 96.06017334 256.10755981 95.03759766 255.8347168 C85.56100462 253.30243205 76.15927483 250.58203824 66.79663086 247.65478516 C57.36906907 244.73829144 47.83585741 242.23511356 38.28710938 239.75195312 C37.08119141 239.43677734 35.87527344 239.12160156 34.6328125 238.796875 C33.56949707 238.52198242 32.50618164 238.24708984 31.41064453 237.96386719 C27.22433869 236.78079378 23.11573255 235.40643116 19 234 C18.95210831 233.35599747 18.90421661 232.71199493 18.85487366 232.04847717 C18.35385696 225.31561813 17.85055183 218.58293287 17.34594727 211.8503418 C17.15819144 209.34127065 16.97100942 206.83215649 16.78442383 204.32299805 C16.51536288 200.70610136 16.24420495 197.08936691 15.97265625 193.47265625 C15.89032242 192.35979752 15.80798859 191.24693878 15.72315979 190.10035706 C15.37617831 185.50146029 15.00915002 180.92245556 14.43920898 176.34545898 C13.95812031 171.58564945 14 166.78406032 14 162 C29.84 162 45.68 162 62 162 C63.15033784 180.40540541 63.15033784 180.40540541 63.0625 189.5 C63.05798828 190.42941406 63.05347656 191.35882813 63.04882812 192.31640625 C63.03734389 194.54434858 63.02112185 196.77213206 63 199 C63.63421875 199.07476562 64.2684375 199.14953125 64.921875 199.2265625 C71.7111439 200.18306171 78.07863978 201.80641827 84.625 203.8125 C85.47578125 204.07248779 86.3265625 204.33247559 87.203125 204.6003418 C90.64739796 205.65696044 94.09001935 206.71889915 97.53222656 207.78222656 C99.93375396 208.51642133 102.34072631 209.22920291 104.75 209.9375 C105.46365723 210.16091064 106.17731445 210.38432129 106.91259766 210.61450195 C116.25870241 213.3227357 125.00172533 210.1246252 134.1340332 207.72631836 C136.16401101 207.19366338 138.19602255 206.6694492 140.22851562 206.14648438 C148.56061841 203.98740674 156.79252984 201.5942237 165 199 C165.09062965 197.9985495 165.09062965 197.9985495 165.18309021 196.97686768 C165.812055 190.03371055 166.44539941 183.09096287 167.08129883 176.1484375 C167.31810255 173.55674332 167.55378601 170.96494653 167.78833008 168.37304688 C168.1254768 164.64946445 168.46663873 160.92626854 168.80859375 157.203125 C168.91280136 156.04258606 169.01700897 154.88204712 169.12437439 153.68634033 C169.22440262 152.60552185 169.32443085 151.52470337 169.42749023 150.41113281 C169.51409409 149.46071106 169.60069794 148.51028931 169.68992615 147.53106689 C170 145 170 145 171 141 C118.53 141 66.06 141 12 141 C10.93779827 137.81339481 10.68226224 135.14178542 10.421875 131.79296875 C10.37037292 131.14530045 10.31887085 130.49763214 10.26580811 129.83033752 C10.15169141 128.38917949 10.03933851 126.94788104 9.9284668 125.50646973 C9.74547509 123.12870406 9.55786732 120.75134046 9.36914062 118.37402344 C9.07845493 114.70764551 8.78965882 111.04112468 8.50195312 107.37451172 C7.56956752 95.5118962 6.61694011 83.65088611 5.6638298 71.78992081 C5.50004327 69.75053882 5.33655747 67.7111329 5.17312622 65.67172241 C3.82090708 48.80772189 2.4352654 31.94881544 0.8125 15.10839844 C0.70292969 13.95887695 0.59335938 12.80935547 0.48046875 11.625 C0.38660889 10.66851562 0.29274902 9.71203125 0.19604492 8.7265625 C-0.01262119 5.82446646 0 2.90958811 0 0 Z " fill="#FEFEFD" transform="translate(141,196)"/>
<path d="M0 0 C49.5 0 99 0 150 0 C147 40 147 40 145 59 C144.65767514 62.97457657 144.32792753 66.94412612 144.03515625 70.921875 C143.875065 73.02279141 143.71490635 75.12370269 143.5546875 77.22460938 C143.47444336 78.2896167 143.39419922 79.35462402 143.31152344 80.4519043 C142.09329851 96.58621861 140.80775609 112.70095091 139.16304016 128.7978363 C138.12145621 139.23619727 137.30349596 149.68697734 136.50669098 160.14652061 C134.85979969 181.69549406 133.06955292 203.23087268 131.203125 224.76171875 C131.14303253 225.45508221 131.08294006 226.14844567 131.02102661 226.86282015 C130.28769608 235.32108988 129.55091605 243.77905732 128.81268883 252.23690093 C128.17481789 259.5460212 127.53953091 266.85536551 126.90437174 274.16472185 C125.60561778 289.11005046 124.30390177 304.05511955 123 319 C119.24506026 320.09857643 115.4897477 321.19587334 111.734375 322.29296875 C110.16502197 322.75213684 110.16502197 322.75213684 108.56396484 323.22058105 C99.38531232 325.90093159 90.18565477 328.50284976 80.97265625 331.0625 C79.86422363 331.37058594 78.75579102 331.67867188 77.61376953 331.99609375 C76.42122559 332.32738281 75.22868164 332.65867187 74 333 C72.65607686 333.37366058 71.31216452 333.74736002 69.96826172 334.12109375 C63.25928266 335.98669557 56.54991889 337.85090199 49.83988953 339.71272278 C43.32627365 341.52005585 36.81334332 343.32979041 30.30198669 345.14524841 C26.9472357 346.08055894 23.59223105 347.01495777 20.23721313 347.9493103 C18.6255756 348.39842194 17.01406348 348.84798386 15.40267944 349.29800415 C13.17111571 349.92117501 10.93912434 350.54279086 8.70703125 351.1640625 C7.70508224 351.44453178 7.70508224 351.44453178 6.68289185 351.73066711 C2.11387065 353 2.11387065 353 1 353 C1 337.49 1 321.98 1 306 C9.99551466 302.626682 9.99551466 302.626682 14.51171875 301.38671875 C15.50558594 301.11150391 16.49945313 300.83628906 17.5234375 300.55273438 C19.08964844 300.12444336 19.08964844 300.12444336 20.6875 299.6875 C22.93112483 299.066895 25.17461248 298.44579385 27.41796875 297.82421875 C29.08738525 297.36281494 29.08738525 297.36281494 30.79052734 296.89208984 C35.36762661 295.61986098 39.93428738 294.31239877 44.5 293 C53.37161383 290.45485084 62.25654085 287.95880612 71.14697266 285.48022461 C77.9546907 283.58063269 84.74718865 281.63824059 91.5234375 279.62890625 C94 279 94 279 97 279 C96.98021843 277.53193405 96.98021843 277.53193405 96.96003723 276.03421021 C96.87192622 266.56436826 97.29833168 257.24405868 98.13671875 247.8046875 C98.25979849 246.36512755 98.38232503 244.92552021 98.50434875 243.48587036 C98.8267676 239.70204951 99.15752471 235.91900214 99.4899292 232.13604736 C99.80832665 228.49223102 100.11737516 224.84763485 100.42773438 221.203125 C102.81664366 193.45549005 105.43215639 165.73271104 108 138 C52.89 138 -2.22 138 -59 138 C-61.33891753 119.28865979 -61.33891753 119.28865979 -62.125 110.5 C-62.21136719 109.58992188 -62.29773438 108.67984375 -62.38671875 107.7421875 C-62.46792969 106.84757812 -62.54914063 105.95296875 -62.6328125 105.03125 C-62.73940186 103.86432617 -62.73940186 103.86432617 -62.84814453 102.67382812 C-63.04990709 99.12125013 -63 95.55830276 -63 92 C-5.25 91.67 52.5 91.34 112 91 C112.99 78.13 113.98 65.26 115 52 C115.33 49.69 115.66 47.38 116 45 C39.77 45 -36.46 45 -115 45 C-115 44.67 -115 44.34 -115 44 C-77.05 44 -39.1 44 0 44 C0 29.48 0 14.96 0 0 Z " fill="#F26519" transform="translate(256,151)"/>
<path d="M0 0 C7.92 0 15.84 0 24 0 C28.91151432 6.22407419 31.86769315 10.00174863 34.93164062 16.80615234 C36.26206583 19.53814523 37.96881207 21.74985373 40 24 C40.56714722 23.12263184 40.56714722 23.12263184 41.14575195 22.22753906 C42.86651139 19.56739217 44.58948202 16.9086845 46.3125 14.25 C46.90740234 13.32960938 47.50230469 12.40921875 48.11523438 11.4609375 C48.69208984 10.57148438 49.26894531 9.68203125 49.86328125 8.765625 C50.39219971 7.94868164 50.92111816 7.13173828 51.46606445 6.29003906 C52.90443805 4.1426661 54.44924324 2.06767568 56 0 C63.59 0 71.18 0 79 0 C79 23.1 79 46.2 79 70 C71.41 70 63.82 70 56 70 C55.67 59.11 55.34 48.22 55 37 C51.93156727 41.9486859 51.93156727 41.9486859 48.8684082 46.90063477 C46.07057675 51.39492001 43.11957363 55.72253057 40 60 C36.63816464 55.94855739 33.70955791 51.69850104 30.8125 47.3125 C30.36197266 46.63638672 29.91144531 45.96027344 29.44726562 45.26367188 C26.1409337 40.2818674 26.1409337 40.2818674 25 38 C24.67 48.56 24.34 59.12 24 70 C16.08 70 8.16 70 0 70 C0 46.9 0 23.8 0 0 Z " fill="#030303" transform="translate(259,17)"/>
<path d="M0 0 C7.26 0 14.52 0 22 0 C22 5.61 22 11.22 22 17 C23.33675781 16.28972656 24.67351562 15.57945313 26.05078125 14.84765625 C27.80462416 13.91915118 29.55853389 12.99077232 31.3125 12.0625 C32.63411133 11.35963867 32.63411133 11.35963867 33.98242188 10.64257812 C34.82998047 10.19462891 35.67753906 9.74667969 36.55078125 9.28515625 C37.33106689 8.87144775 38.11135254 8.45773926 38.9152832 8.03149414 C41 7 41 7 44 6 C44.33 4.02 44.66 2.04 45 0 C47.16659374 -0.02738672 49.33329175 -0.04656832 51.5 -0.0625 C53.30984375 -0.07990234 53.30984375 -0.07990234 55.15625 -0.09765625 C59.11980619 0.00304386 63.06578175 0.50822272 67 1 C67 24.1 67 47.2 67 71 C59.74 71 52.48 71 45 71 C45 63.41 45 55.82 45 48 C37.41 48 29.82 48 22 48 C22 55.59 22 63.18 22 71 C14.74 71 7.48 71 0 71 C0 47.57 0 24.14 0 0 Z " fill="#040404" transform="translate(106,16)"/>
<path d="M0 0 C52.47 0 104.94 0 159 0 C158.34 8.25 157.68 16.5 157 25 C156.75378906 28.16464844 156.50757813 31.32929688 156.25390625 34.58984375 C155.90429687 38.83007813 155.90429687 38.83007813 155.73217773 40.87524414 C155.61570523 42.29084591 155.50466381 43.70690186 155.39819336 45.12329102 C155.23817227 47.23844454 155.06050079 49.35144779 154.87890625 51.46484375 C154.7816626 52.677771 154.68441895 53.89069824 154.58422852 55.14038086 C154 58 154 58 151 60 C149.37986579 60.50115731 147.7393082 60.93800011 146.08984375 61.33203125 C145.10798096 61.57091064 144.12611816 61.80979004 143.11450195 62.0559082 C142.06609131 62.3055835 141.01768066 62.55525879 139.9375 62.8125 C131.45417718 64.87701135 123.01732536 67.03801265 114.62280273 69.4387207 C111.08330075 70.44607508 107.61733008 71.27653398 104 72 C104 48.57 104 25.14 104 1 C69.68 1 35.36 1 0 1 C0 0.67 0 0.34 0 0 Z " fill="#F26519" transform="translate(153,337)"/>
<path d="M0 0 C21.12 0 42.24 0 64 0 C64 14.85 64 29.7 64 45 C44.2 45 24.4 45 4 45 C1.6664557 26.33164557 1.6664557 26.33164557 0.875 17.4375 C0.78863281 16.51904297 0.70226562 15.60058594 0.61328125 14.65429688 C0.53207031 13.75646484 0.45085937 12.85863281 0.3671875 11.93359375 C0.29612793 11.15040771 0.22506836 10.36722168 0.15185547 9.56030273 C-0.0368488 6.37872443 0 3.18716956 0 0 Z " fill="#E64C18" transform="translate(193,244)"/>
<path d="M0 0 C21.78 0 43.56 0 66 0 C66 7.92 66 15.84 66 24 C59.07 24 52.14 24 45 24 C45 39.18 45 54.36 45 70 C37.41 70 29.82 70 22 70 C22 54.82 22 39.64 22 24 C14.74 24 7.48 24 0 24 C0 16.08 0 8.16 0 0 Z " fill="#000000" transform="translate(183,17)"/>
<path d="M0 0 C7.92 0 15.84 0 24 0 C23.67 15.84 23.34 31.68 23 48 C34.22 48 45.44 48 57 48 C57 55.26 57 62.52 57 70 C38.19 70 19.38 70 0 70 C0 46.9 0 23.8 0 0 Z " fill="#000000" transform="translate(350,17)"/>
<path d="M0 0 C0 6.27 0 12.54 0 19 C-7.59 19 -15.18 19 -23 19 C-23 16.36 -23 13.72 -23 11 C-19.89779023 9.35045833 -16.79290789 7.7060119 -13.6875 6.0625 C-12.80642578 5.59392578 -11.92535156 5.12535156 -11.01757812 4.64257812 C-10.17001953 4.19462891 -9.32246094 3.74667969 -8.44921875 3.28515625 C-7.27879028 2.66459351 -7.27879028 2.66459351 -6.0847168 2.03149414 C-1.97893491 0 -1.97893491 0 0 0 Z " fill="#F2F2F2" transform="translate(151,22)"/>
</svg>
