<?xml version="1.0" encoding="UTF-8"?>
<svg version="1.1" xmlns="http://www.w3.org/2000/svg" width="225" height="225">
<path d="M0 0 C74.25 0 148.5 0 225 0 C225 74.25 225 148.5 225 225 C150.75 225 76.5 225 0 225 C0 150.75 0 76.5 0 0 Z " fill="#141414" transform="translate(0,0)"/>
<path d="M0 0 C0 0.66 0 1.32 0 2 C1.08861328 2.37125 1.08861328 2.37125 2.19921875 2.75 C5.27845264 4.12427454 7.31466039 5.74655929 9.8125 8 C10.60269531 8.70125 11.39289063 9.4025 12.20703125 10.125 C14 12 14 12 14 14 C14.53625 14.268125 15.0725 14.53625 15.625 14.8125 C17.34911804 15.67455902 19.04561625 16.59256588 20.72265625 17.54296875 C26.91673974 20.29671504 34.3800382 20.28664369 40.76953125 18.015625 C44.71917694 15.89342732 48.07354129 13.43540806 51 10 C51.66 10.33 52.32 10.66 53 11 C52.09111244 12.89957501 51.17251969 14.79450786 50.25 16.6875 C49.48429687 18.27111328 49.48429687 18.27111328 48.703125 19.88671875 C43.25304874 29.84935815 34.73255007 34.26264435 24.23046875 37.5546875 C12.56593001 39.8835096 -0.85675856 38.27140391 -11.0703125 32.1640625 C-13.81772273 30.2101822 -16.41756218 28.16591559 -19 26 C-19.73734375 25.4121875 -20.4746875 24.824375 -21.234375 24.21875 C-22.87812572 22.87744941 -24.44902465 21.44757699 -26 20 C-26 19.34 -26 18.68 -26 18 C-26.70125 17.731875 -27.4025 17.46375 -28.125 17.1875 C-31 16 -31 16 -33.5 14.375 C-39.46508667 12.03157309 -46.24247749 11.86726226 -52.41015625 13.7265625 C-56.80797597 15.81107821 -60.39867259 18.75880533 -64 22 C-63.06867249 14.5493799 -59.07821132 8.3454856 -54 3 C-53.34 3 -52.68 3 -52 3 C-52 2.34 -52 1.68 -52 1 C-34.97068538 -8.14278777 -17.47904915 -8.73952458 0 0 Z " fill="#6983F2" transform="translate(138,45)"/>
<path d="M0 0 C6.42330006 3.29295763 12.14135196 6.5860779 17 12 C23.2309799 17.9817407 28.97282183 22.122486 37.8125 22.625 C46.41896013 22.34139041 53.20434846 18.17129562 59 12 C58.39282831 16.05768401 57.07940719 19.15233502 55.125 22.75 C54.61195313 23.71421875 54.09890625 24.6784375 53.5703125 25.671875 C52 28 52 28 49 29 C49 29.66 49 30.32 49 31 C47.34765625 32.40234375 47.34765625 32.40234375 45.0625 33.9375 C44.33160156 34.44152344 43.60070312 34.94554687 42.84765625 35.46484375 C35.41118202 39.47380722 28.51108444 40.5297266 20.125 40.4375 C19.15336914 40.42920166 18.18173828 40.42090332 17.18066406 40.41235352 C4.26796078 40.10764495 -5.78956336 35.41735846 -14.9375 26.1875 C-15.9584375 25.1046875 -15.9584375 25.1046875 -17 24 C-17.99 23.34 -18.98 22.68 -20 22 C-20 21.34 -20 20.68 -20 20 C-29.05283188 16.27236334 -38.19809183 13.63990176 -47.6875 17.5 C-48.450625 17.995 -49.21375 18.49 -50 19 C-50.66 19 -51.32 19 -52 19 C-52.33 19.99 -52.66 20.98 -53 22 C-55.0625 23.1875 -55.0625 23.1875 -57 24 C-56.60324198 16.26321857 -51.69140931 10.33090109 -46.25 5.1875 C-41.94999803 1.61659278 -37.26532008 -0.2604804 -32 -2 C-22.68103655 -5.10632115 -8.80970318 -4.19860436 0 0 Z " fill="#6A83F5" transform="translate(92,86)"/>
<path d="M0 0 C1.32 0 2.64 0 4 0 C4 7.26 4 14.52 4 22 C2.68 22 1.36 22 0 22 C0 17.05 0 12.1 0 7 C-3.06098195 10.06098195 -3.82645413 11.69822763 -5.1875 15.6875 C-5.53167969 16.68136719 -5.87585938 17.67523438 -6.23046875 18.69921875 C-6.61138672 19.83810547 -6.61138672 19.83810547 -7 21 C-8.32 21 -9.64 21 -11 21 C-11.99 18.69 -12.98 16.38 -14 14 C-14.66 16.64 -15.32 19.28 -16 22 C-17.65 22 -19.3 22 -21 22 C-21.67184618 19.89748139 -22.33730968 17.79292237 -23 15.6875 C-23.556875 13.92986328 -23.556875 13.92986328 -24.125 12.13671875 C-25 9 -25 9 -25 6 C-23.68 6 -22.36 6 -21 6 C-20.34 8.31 -19.68 10.62 -19 13 C-16.64046906 10.64046906 -16.50858587 9.22104383 -16 6 C-14.35 6.33 -12.7 6.66 -11 7 C-10.34 8.98 -9.68 10.96 -9 13 C-8.54625 11.865625 -8.0925 10.73125 -7.625 9.5625 C-6 6 -6 6 -4 5 C-4 4.01 -4 3.02 -4 2 C-2.68 2.33 -1.36 2.66 0 3 C0 2.01 0 1.02 0 0 Z " fill="#CACACA" transform="translate(104,153)"/>
<path d="M0 0 C3.68057475 2.23041253 6.71806086 5.15127553 9.82421875 8.10546875 C22.2614714 19.7267585 33.49567129 22.79465649 50.3203125 22.49609375 C58.43549174 22.11302731 66.03461683 20.06998312 71.82421875 14.10546875 C72.48421875 14.10546875 73.14421875 14.10546875 73.82421875 14.10546875 C73.82421875 13.44546875 73.82421875 12.78546875 73.82421875 12.10546875 C74.81421875 11.77546875 75.80421875 11.44546875 76.82421875 11.10546875 C76.82421875 12.42546875 76.82421875 13.74546875 76.82421875 15.10546875 C75.50421875 15.10546875 74.18421875 15.10546875 72.82421875 15.10546875 C72.59734375 15.88921875 72.37046875 16.67296875 72.13671875 17.48046875 C70.82421875 20.10546875 70.82421875 20.10546875 68.38671875 21.35546875 C67.54109375 21.60296875 66.69546875 21.85046875 65.82421875 22.10546875 C64.33921875 22.60046875 64.33921875 22.60046875 62.82421875 23.10546875 C62.82421875 23.43546875 62.82421875 23.76546875 62.82421875 24.10546875 C46.74889216 26.48699861 29.32163605 27.06075244 15.50390625 17.5 C11.94510789 14.83971014 8.75924245 12.23651126 6.01171875 8.73046875 C4.09305196 5.99043754 4.09305196 5.99043754 1.51171875 5.23046875 C0.67640625 5.16859375 0.67640625 5.16859375 -0.17578125 5.10546875 C-0.17578125 4.11546875 -0.17578125 3.12546875 -0.17578125 2.10546875 C-8.64832063 -0.71871104 -18.6144293 0.53869093 -26.61328125 4.23046875 C-27.12890625 4.51921875 -27.64453125 4.80796875 -28.17578125 5.10546875 C-27.17578125 2.10546875 -27.17578125 2.10546875 -23.92578125 -0.08203125 C-16.71662731 -3.45321835 -7.26240626 -3.24296129 0 0 Z " fill="#141A3C" transform="translate(67.17578125,102.89453125)"/>
<path d="M0 0 C0 5.28 0 10.56 0 16 C-12.625 16.25 -12.625 16.25 -16 14 C-17.19754817 10.40735548 -17.33094958 7.77282526 -17 4 C-12.64077509 -2.02191217 -6.7971353 -0.27188541 0 0 Z " fill="#CACACA" transform="translate(62,159)"/>
<path d="M0 0 C0.99 0 1.98 0 3 0 C3 6.93 3 13.86 3 21 C-8.19908987 22.58248009 -8.19908987 22.58248009 -11.75 20 C-13.28517854 16.31557151 -13.57527738 13.95503199 -13 10 C-11.4375 7.5625 -11.4375 7.5625 -9 6 C-5.3125 5.6875 -5.3125 5.6875 -2 6 C-1.67 6.33 -1.34 6.66 -1 7 C-0.67 4.69 -0.34 2.38 0 0 Z " fill="#E8E8E8" transform="translate(142,153)"/>
<path d="M0 0 C2 0 2 0 4.1875 2.125 C4.62835938 2.58003906 5.06921875 3.03507812 5.5234375 3.50390625 C12.04006146 10.10672893 18.26861078 15.08245333 27.8125 15.625 C36.41896013 15.34139041 43.20434846 11.17129562 49 5 C48.39282831 9.05768401 47.07940719 12.15233502 45.125 15.75 C44.61195313 16.71421875 44.09890625 17.6784375 43.5703125 18.671875 C42 21 42 21 39 22 C39 22.66 39 23.32 39 24 C36.90404479 26.04763347 34.60129074 27.65635809 32 29 C29.0625 28.8125 29.0625 28.8125 27 28 C30 26 30 26 33 25 C34.39712274 23.04402816 35.73779907 21.04563599 37 19 C33.79816603 17.93272201 32.50286336 18.10979493 29.25 18.625 C24.16611864 19.21960601 21.46381844 18.41790165 17 16 C16.34 15.67 15.68 15.34 15 15 C15 14.34 15 13.68 15 13 C14.071875 12.7834375 14.071875 12.7834375 13.125 12.5625 C11 12 11 12 9 11 C9 10.34 9 9.68 9 9 C7.68 9 6.36 9 5 9 C5 8.34 5 7.68 5 7 C4.34 7 3.68 7 3 7 C0 2.61538462 0 2.61538462 0 0 Z " fill="#6C80D5" transform="translate(102,93)"/>
<path d="M0 0 C-0.38878998 2.81872737 -0.70810365 3.77195598 -3 5.5625 C-3.66 6.036875 -4.32 6.51125 -5 7 C-5.33 7.99 -5.66 8.98 -6 10 C-5.37955811 9.98428955 -4.75911621 9.9685791 -4.11987305 9.95239258 C-1.30917472 9.89003786 1.50137812 9.85100852 4.3125 9.8125 C5.77719727 9.77479492 5.77719727 9.77479492 7.27148438 9.73632812 C8.20927734 9.72666016 9.14707031 9.71699219 10.11328125 9.70703125 C10.97735596 9.6913208 11.84143066 9.67561035 12.73168945 9.65942383 C15.50189657 10.07535741 16.20551085 10.9199874 18 13 C18.886875 13.515625 19.77375 14.03125 20.6875 14.5625 C21.450625 15.036875 22.21375 15.51125 23 16 C23 16.66 23 17.32 23 18 C24.65 18.33 26.3 18.66 28 19 C28 20.65 28 22.3 28 24 C25.96166576 22.7260411 23.96147874 21.38938077 22 20 C22 19.34 22 18.68 22 18 C21.29875 17.731875 20.5975 17.46375 19.875 17.1875 C17 16 17 16 14.5 14.375 C8.53491333 12.03157309 1.75752251 11.86726226 -4.41015625 13.7265625 C-8.80797597 15.81107821 -12.39867259 18.75880533 -16 22 C-15.06867249 14.5493799 -11.07821132 8.3454856 -6 3 C-5.34 3 -4.68 3 -4 3 C-4 2.34 -4 1.68 -4 1 C-2 0 -2 0 0 0 Z " fill="#6A7CCE" transform="translate(90,45)"/>
<path d="M0 0 C3.36225688 1.78619897 6.07145528 3.8957649 8.875 6.4375 C19.17923601 15.53510615 30.69548764 17.71769296 44.21875 17.296875 C49.15822401 16.90906506 53.4036344 15.78457377 58 14 C59.19625 13.608125 60.3925 13.21625 61.625 12.8125 C62.40875 12.544375 63.1925 12.27625 64 12 C64 12.99 64 13.98 64 15 C56.15415461 19.08766175 48.56633455 19.73040178 39.90332031 19.89379883 C37.73863949 19.93773056 35.57748761 20.01870897 33.4140625 20.10351562 C32.02089358 20.14282168 30.62766283 20.18000638 29.234375 20.21484375 C27.36604004 20.26306274 27.36604004 20.26306274 25.45996094 20.31225586 C21.6107139 19.96486756 19.24332501 19.08001119 16 17 C15.67 16.01 15.34 15.02 15 14 C13.27299138 12.87083125 13.27299138 12.87083125 11.1875 12 C8.18674698 10.58851474 5.46933191 9.26355425 3 7 C3 6.34 3 5.68 3 5 C2.01 4.67 1.02 4.34 0 4 C0 2.68 0 1.36 0 0 Z " fill="#0E152F" transform="translate(112,65)"/>
<path d="M0 0 C0.66 0.33 1.32 0.66 2 1 C1.09111244 2.89957501 0.17251969 4.79450786 -0.75 6.6875 C-1.26046875 7.74324219 -1.7709375 8.79898438 -2.296875 9.88671875 C-5.34240013 15.4538828 -8.59733522 18.68472843 -14 22 C-13.34 19.03 -12.68 16.06 -12 13 C-12.83144531 13.01160156 -13.66289062 13.02320312 -14.51953125 13.03515625 C-15.60621094 13.04417969 -16.69289062 13.05320312 -17.8125 13.0625 C-18.89144531 13.07410156 -19.97039062 13.08570312 -21.08203125 13.09765625 C-24 13 -24 13 -27 12 C-27 11.34 -27 10.68 -27 10 C-26.09378906 9.98582031 -25.18757812 9.97164062 -24.25390625 9.95703125 C-14.75786556 9.5852286 -8.52392837 8.08256951 -1.4375 1.6875 C-0.963125 1.130625 -0.48875 0.57375 0 0 Z " fill="#6E86E6" transform="translate(189,55)"/>
<path d="M0 0 C0.33 0.66 0.66 1.32 1 2 C0.34 2 -0.32 2 -1 2 C-1.1546875 2.9590625 -1.1546875 2.9590625 -1.3125 3.9375 C-1.539375 4.618125 -1.76625 5.29875 -2 6 C-2.99 6.33 -3.98 6.66 -5 7 C-5.33 8.32 -5.66 9.64 -6 11 C0.6 11 7.2 11 14 11 C14.33 11.99 14.66 12.98 15 14 C13.84242187 13.96519531 12.68484375 13.93039063 11.4921875 13.89453125 C9.9531396 13.86637793 8.41407589 13.83907944 6.875 13.8125 C6.11445312 13.78736328 5.35390625 13.76222656 4.5703125 13.73632812 C-0.44221308 13.67151098 -3.56441772 14.43167652 -8 17 C-8.66 17 -9.32 17 -10 17 C-10.33 17.99 -10.66 18.98 -11 20 C-13.0625 21.1875 -13.0625 21.1875 -15 22 C-14.64027462 14.98535514 -10.70817947 9.65469657 -5.82421875 4.8671875 C-3.917586 3.19422733 -1.99079139 1.57141148 0 0 Z " fill="#6A7BCD" transform="translate(50,88)"/>
<path d="M0 0 C1.24394531 0.00322266 2.48789063 0.00644531 3.76953125 0.00976562 C5.05472656 0.01814453 6.33992188 0.02652344 7.6640625 0.03515625 C8.97246094 0.03966797 10.28085938 0.04417969 11.62890625 0.04882812 C14.84900531 0.06058031 18.0690102 0.07701082 21.2890625 0.09765625 C21.2890625 1.08765625 21.2890625 2.07765625 21.2890625 3.09765625 C22.0521875 3.22140625 22.8153125 3.34515625 23.6015625 3.47265625 C26.2890625 4.09765625 26.2890625 4.09765625 29.2890625 6.09765625 C30.94455781 6.48265516 32.6113058 6.8255876 34.2890625 7.09765625 C34.7840625 10.06765625 34.7840625 10.06765625 35.2890625 13.09765625 C33.3090625 12.10765625 31.3290625 11.11765625 29.2890625 10.09765625 C29.2890625 9.43765625 29.2890625 8.77765625 29.2890625 8.09765625 C26.85803855 7.35041528 24.42450336 6.61552258 21.984375 5.8984375 C19.86727728 5.2694447 17.76287646 4.59769875 15.6640625 3.91015625 C6.81058778 1.74195836 -3.80991897 2.61415316 -12.7109375 4.09765625 C-12.7109375 3.10765625 -12.7109375 2.11765625 -12.7109375 1.09765625 C-8.41488018 0.27543071 -4.37127147 -0.0200517 0 0 Z " fill="#0E112E" transform="translate(108.7109375,36.90234375)"/>
<path d="M0 0 C1.9864712 2.83698379 1.62089671 5.17720668 1.51953125 8.58984375 C1.49246094 9.76933594 1.46539062 10.94882813 1.4375 12.1640625 C1.40269531 13.06769531 1.36789063 13.97132813 1.33203125 14.90234375 C0.01203125 14.90234375 -1.30796875 14.90234375 -2.66796875 14.90234375 C-2.99796875 10.94234375 -3.32796875 6.98234375 -3.66796875 2.90234375 C-5.31796875 3.23234375 -6.96796875 3.56234375 -8.66796875 3.90234375 C-8.99796875 7.20234375 -9.32796875 10.50234375 -9.66796875 13.90234375 C-10.65796875 13.90234375 -11.64796875 13.90234375 -12.66796875 13.90234375 C-12.66796875 9.28234375 -12.66796875 4.66234375 -12.66796875 -0.09765625 C-3.06644037 -2.01796193 -3.06644037 -2.01796193 0 0 Z " fill="#D6D6D6" transform="translate(124.66796875,160.09765625)"/>
<path d="M0 0 C0 1.65 0 3.3 0 5 C0.99 5 1.98 5 3 5 C3 5.99 3 6.98 3 8 C2.01 8 1.02 8 0 8 C0 10.97 0 13.94 0 17 C1.32 17 2.64 17 4 17 C4 18.32 4 19.64 4 21 C1.125 21.1875 1.125 21.1875 -2 21 C-4.13586678 17.79619983 -4.23132175 16.98060033 -4.125 13.3125 C-4.10695312 12.50425781 -4.08890625 11.69601563 -4.0703125 10.86328125 C-4.03550781 9.94095703 -4.03550781 9.94095703 -4 9 C-4.99 9 -5.98 9 -7 9 C-7 7.68 -7 6.36 -7 5 C-6.01 5 -5.02 5 -4 5 C-4 3.68 -4 2.36 -4 1 C-2 0 -2 0 0 0 Z " fill="#D9D9D9" transform="translate(40,154)"/>
<path d="M0 0 C1.670625 0.061875 1.670625 0.061875 3.375 0.125 C4.035 1.445 4.695 2.765 5.375 4.125 C3.065 3.795 0.755 3.465 -1.625 3.125 C-1.625 4.115 -1.625 5.105 -1.625 6.125 C-0.201875 6.558125 -0.201875 6.558125 1.25 7 C4.375 8.125 4.375 8.125 6.375 10.125 C6.00818342 13.05953261 5.51062754 13.98937246 3.375 16.125 C-0.25 16.25 -0.25 16.25 -3.625 16.125 C-4.285 14.805 -4.945 13.485 -5.625 12.125 C-4.635 11.795 -3.645 11.465 -2.625 11.125 C-2.625 11.785 -2.625 12.445 -2.625 13.125 C-0.975 13.125 0.675 13.125 2.375 13.125 C2.375 12.135 2.375 11.145 2.375 10.125 C1.42625 10.00125 0.4775 9.8775 -0.5 9.75 C-3.625 9.125 -3.625 9.125 -5.625 7.125 C-5.875 4.625 -5.875 4.625 -5.625 2.125 C-3.625 0.125 -3.625 0.125 0 0 Z " fill="#E6E6E6" transform="translate(171.625,158.875)"/>
<path d="M0 0 C0 0.33 0 0.66 0 1 C-1.46808105 0.99214478 -1.46808105 0.99214478 -2.96582031 0.98413086 C-6.60366905 0.96600439 -10.24151381 0.95454003 -13.87939453 0.94506836 C-15.45264355 0.94004563 -17.02588792 0.93322625 -18.59912109 0.92456055 C-20.86296743 0.91240471 -23.12675193 0.90675104 -25.390625 0.90234375 C-26.09181458 0.89718246 -26.79300415 0.89202118 -27.51544189 0.88670349 C-30.82485751 0.88632498 -33.83587763 0.97485273 -37 2 C-37.33 3.32 -37.66 4.64 -38 6 C-39.65 6 -41.3 6 -43 6 C-43 5.34 -43 4.68 -43 4 C-42.34 4 -41.68 4 -41 4 C-40.67 3.01 -40.34 2.02 -40 1 C-29.22476397 -5.8548842 -11.36260432 -4.90724299 0 0 Z " fill="#6C7ED3" transform="translate(92,86)"/>
<path d="M0 0 C3 0.1875 3 0.1875 5 1.1875 C5 2.1775 5 3.1675 5 4.1875 C3.02 4.1875 1.04 4.1875 -1 4.1875 C-1.33 4.8475 -1.66 5.5075 -2 6.1875 C-0.8553125 6.373125 -0.8553125 6.373125 0.3125 6.5625 C3 7.1875 3 7.1875 6 9.1875 C6.375 11.6875 6.375 11.6875 6 14.1875 C2.3558226 16.6169516 0.28758728 16.34929575 -4 16.1875 C-4.66 14.8675 -5.32 13.5475 -6 12.1875 C-2.88742431 12.1875 -0.89234315 12.36111624 2 13.1875 C2 12.1975 2 11.2075 2 10.1875 C1.21625 10.06375 0.4325 9.94 -0.375 9.8125 C-3 9.1875 -3 9.1875 -5 7.1875 C-5.25 4.6875 -5.25 4.6875 -5 2.1875 C-3 0.1875 -3 0.1875 0 0 Z " fill="#DCDCDC" transform="translate(186,158.8125)"/>
<path d="M0 0 C1.9375 1.375 1.9375 1.375 3 3 C3 3.66 3 4.32 3 5 C2.36191406 4.91621094 1.72382813 4.83242187 1.06640625 4.74609375 C0.24011719 4.64425781 -0.58617187 4.54242188 -1.4375 4.4375 C-2.26121094 4.33308594 -3.08492187 4.22867188 -3.93359375 4.12109375 C-4.95646484 4.06115234 -4.95646484 4.06115234 -6 4 C-7.2678956 5.04490735 -7.2678956 5.04490735 -7.125 7.375 C-7.11343738 10.11093048 -7.11343738 10.11093048 -6 13 C-3.03 12.34 -0.06 11.68 3 11 C2.67 12.32 2.34 13.64 2 15 C-1.13871188 16.56935594 -3.53855822 16.35201103 -7 16 C-10 13.9375 -10 13.9375 -12 11 C-12.06944397 7.04169355 -11.5699479 4.85492184 -9.375 1.5625 C-6.07504691 -0.60852177 -3.86948588 -0.49248002 0 0 Z " fill="#D2D2D2" transform="translate(160,159)"/>
<path d="M0 0 C1.32 0 2.64 0 4 0 C4.66 2.31 5.32 4.62 6 7 C8.35953094 4.64046906 8.49141413 3.22104383 9 0 C10.32 0 11.64 0 13 0 C13 1.98 13 3.96 13 6 C12.34 6 11.68 6 11 6 C10.34 9.3 9.68 12.6 9 16 C7.35 16 5.7 16 4 16 C3.32815382 13.89748139 2.66269032 11.79292237 2 9.6875 C1.443125 7.92986328 1.443125 7.92986328 0.875 6.13671875 C0 3 0 3 0 0 Z " fill="#D9D9D9" transform="translate(79,159)"/>
<path d="M0 0 C2.875 -0.1875 2.875 -0.1875 6 0 C6.66 0.99 7.32 1.98 8 3 C10.17610667 4.22196109 10.17610667 4.22196109 12.625 5.1875 C13.44226563 5.53167969 14.25953125 5.87585938 15.1015625 6.23046875 C15.72804688 6.48441406 16.35453125 6.73835938 17 7 C17 7.66 17 8.32 17 9 C30.86 9.495 30.86 9.495 45 10 C42.07866367 12.92133633 39.55965022 12.31722637 35.55957031 12.38061523 C21.15783356 12.35363251 11.37745376 10.40305832 0 1 C0 0.67 0 0.34 0 0 Z " fill="#697BCD" transform="translate(80,114)"/>
<path d="M0 0 C0 0.33 0 0.66 0 1 C-0.75619629 1.01981934 -1.51239258 1.03963867 -2.29150391 1.06005859 C-5.73633718 1.15564572 -9.18059201 1.26518891 -12.625 1.375 C-13.81480469 1.4059375 -15.00460938 1.436875 -16.23046875 1.46875 C-17.38417969 1.50742187 -18.53789063 1.54609375 -19.7265625 1.5859375 C-20.78439941 1.6173584 -21.84223633 1.6487793 -22.93212891 1.68115234 C-26.19620369 2.02039169 -28.91059703 2.92381961 -32 4 C-35.375 4.125 -35.375 4.125 -38 4 C-30.06353286 -5.16931641 -10.37255552 -3.45751851 0 0 Z " fill="#6274B9" transform="translate(128,41)"/>
<path d="M0 0 C2.69374642 0.25654728 4.31699635 0.88229413 6.625 2.25 C6.875 4.5625 6.875 4.5625 6.625 7.25 C4.47218042 9.56228769 3.12737143 10.17823265 0 10.625 C-0.78375 10.50125 -1.5675 10.3775 -2.375 10.25 C-4.52415785 7.02626323 -4.75786803 5.98296326 -4.375 2.25 C-2.375 0.25 -2.375 0.25 0 0 Z " fill="#2B2B2B" transform="translate(156.375,161.75)"/>
<path d="M0 0 C-0.86818359 0.64388672 -0.86818359 0.64388672 -1.75390625 1.30078125 C-7.92972238 5.97292041 -13.87039203 10.70259679 -17 18 C-17 19.32 -17 20.64 -17 22 C-16.01 22.33 -15.02 22.66 -14 23 C-14.33 23.99 -14.66 24.98 -15 26 C-16.65 26 -18.3 26 -20 26 C-20.33 24.02 -20.66 22.04 -21 20 C-20.34 20 -19.68 20 -19 20 C-18.9175 19.360625 -18.835 18.72125 -18.75 18.0625 C-17.0802553 11.24437581 -14.52233067 5.53114312 -9 1 C-5.8035914 -0.06546953 -3.34252724 -0.07427838 0 0 Z " fill="#0F1633" transform="translate(54,86)"/>
<path d="M0 0 C1.32 0 2.64 0 4 0 C3.814375 0.804375 3.62875 1.60875 3.4375 2.4375 C3.2209375 3.7059375 3.2209375 3.7059375 3 5 C3.33 5.33 3.66 5.66 4 6 C4.07319621 8.69654854 4.09242537 11.36691458 4.0625 14.0625 C4.05798828 14.82111328 4.05347656 15.57972656 4.04882812 16.36132812 C4.0370068 18.24091871 4.01907078 20.12046899 4 22 C2.68 22 1.36 22 0 22 C0 14.74 0 7.48 0 0 Z " fill="#F1F1F1" transform="translate(65,153)"/>
<path d="M0 0 C0.66 0.66 1.32 1.32 2 2 C1.67028521 5.29714793 1.3773161 6.6226839 -1 9 C-3.5 9.3125 -3.5 9.3125 -6 9 C-8 6 -8 6 -7.75 2.875 C-7.37875 1.451875 -7.37875 1.451875 -7 0 C-4.29393021 -1.35303489 -2.8671629 -0.7884698 0 0 Z " fill="#363636" transform="translate(140,163)"/>
<path d="M0 0 C5.56818182 0.56818182 5.56818182 0.56818182 7 2 C7.1875 4.9375 7.1875 4.9375 7 8 C5 10 5 10 2.5 10.25 C0 10 0 10 -2 8 C-2.25 5 -2.25 5 -2 2 C-1.34 1.34 -0.68 0.68 0 0 Z " fill="#1D1D1D" transform="translate(51,162)"/>
<path d="M0 0 C2.15693906 1.55856242 4.03981604 3.18682984 6 5 C5.67 5.99 5.34 6.98 5 8 C4.5875 7.525625 4.175 7.05125 3.75 6.5625 C1.817815 4.83733482 0.51807725 4.43415125 -2 4 C-2 3.01 -2 2.02 -2 1 C-10.47253938 -1.82417979 -20.43864805 -0.56677782 -28.4375 3.125 C-28.953125 3.41375 -29.46875 3.7025 -30 4 C-29 1 -29 1 -25.75 -1.1875 C-17.57164484 -5.01191069 -7.87379848 -4.00596765 0 0 Z " fill="#0C1335" transform="translate(69,104)"/>
<path d="M0 0 C0 0.99 0 1.98 0 3 C4.1205746 4.99785435 7.45194365 5.17835515 12 5 C12 6.32 12 7.64 12 9 C3.35663887 8.22827133 -3.18368168 6.72511805 -9 0 C-5.62182575 -0.84454356 -3.32534757 -1.10844919 0 0 Z " fill="#6778C5" transform="translate(132,73)"/>
<path d="M0 0 C0.99 0 1.98 0 3 0 C3 7.59 3 15.18 3 23 C2.01 23 1.02 23 0 23 C0 15.41 0 7.82 0 0 Z " fill="#EEEEEE" transform="translate(73,152)"/>
<path d="M0 0 C0 0.33 0 0.66 0 1 C-1.670625 1.4021875 -1.670625 1.4021875 -3.375 1.8125 C-7.21840951 2.65809019 -7.21840951 2.65809019 -9 6 C-8.690625 6.598125 -8.38125 7.19625 -8.0625 7.8125 C-7 10 -7 10 -6 13 C-1.92035719 11.69844994 -1.92035719 11.69844994 2 10 C1.625 12.4375 1.625 12.4375 1 15 C-1.87470493 16.43735246 -3.81894588 16.38172649 -7 16 C-10.16196359 13.25408425 -10.91691332 11.59199258 -11.5 7.4375 C-11 4 -11 4 -9.4375 1.5625 C-6.18129203 -0.5248128 -3.79004984 -0.2915423 0 0 Z " fill="#E0E0E0" transform="translate(140,159)"/>
<path d="M0 0 C1.32 0 2.64 0 4 0 C4 5.28 4 10.56 4 16 C2.68 16 1.36 16 0 16 C0 10.72 0 5.44 0 0 Z " fill="#D3D3D3" transform="translate(104,159)"/>
<path d="M0 0 C0 0.33 0 0.66 0 1 C-2.31 1.66 -4.62 2.32 -7 3 C-6.87625 4.27875 -6.7525 5.5575 -6.625 6.875 C-6.55539063 7.59429687 -6.48578125 8.31359375 -6.4140625 9.0546875 C-6.13625251 11.22668245 -6.13625251 11.22668245 -4 13 C-4 13.99 -4 14.98 -4 16 C-6.16874252 15.49396008 -7.99967627 15.00016187 -10 14 C-11.19754817 10.40735548 -11.33094958 7.77282526 -11 4 C-8.07275826 -0.56649711 -5.15004683 -0.39615745 0 0 Z " fill="#DADADA" transform="translate(56,159)"/>
<path d="M0 0 C1.65 0 3.3 0 5 0 C4.67 2.64 4.34 5.28 4 8 C5.98 8.99 7.96 9.98 10 11 C10 11.99 10 12.98 10 14 C8.9275 13.79375 7.855 13.5875 6.75 13.375 C3.12380904 13.0123809 1.91708924 13.01637931 -1 15 C-1 13.35 -1 11.7 -1 10 C-0.34 9.67 0.32 9.34 1 9 C1.65555119 6.47266765 1.65555119 6.47266765 2 4 C1.34 4 0.68 4 0 4 C0 2.68 0 1.36 0 0 Z " fill="#1B1B1B" transform="translate(178,158)"/>
<path d="M0 0 C1.98 0 3.96 0 6 0 C5.34 0.66 4.68 1.32 4 2 C3.01 1.67 2.02 1.34 1 1 C1 5.62 1 10.24 1 15 C1.99 15 2.98 15 4 15 C3.97679688 14.30132812 3.95359375 13.60265625 3.9296875 12.8828125 C3.91164063 11.97273437 3.89359375 11.06265625 3.875 10.125 C3.85179688 9.22007812 3.82859375 8.31515625 3.8046875 7.3828125 C4 5 4 5 6 3 C8.625 3.375 8.625 3.375 11 4 C11 5.65 11 7.3 11 9 C10.01 8.67 9.02 8.34 8 8 C8.33 7.01 8.66 6.02 9 5 C8.34 5 7.68 5 7 5 C7 5.66 7 6.32 7 7 C6.34 7 5.68 7 5 7 C5 9.97 5 12.94 5 16 C3.35 16 1.7 16 0 16 C0 10.72 0 5.44 0 0 Z " fill="#484848" transform="translate(111,159)"/>
<path d="M0 0 C1.32 0 2.64 0 4 0 C4 0.66 4 1.32 4 2 C4.99 2.33 5.98 2.66 7 3 C7 7.95 7 12.9 7 18 C6.67 17.34 6.34 16.68 6 16 C5.34 16 4.68 16 4 16 C4 11.71 4 7.42 4 3 C2.02 3.33 0.04 3.66 -2 4 C-2.33 3.34 -2.66 2.68 -3 2 C-2.01 2 -1.02 2 0 2 C0 1.34 0 0.68 0 0 Z " fill="#0C0C0C" transform="translate(58,156)"/>
<path d="M0 0 C0.94875 0.165 1.8975 0.33 2.875 0.5 C6.60743698 1.1911204 6.60743698 1.1911204 10 0 C9.67 1.32 9.34 2.64 9 4 C8.38511719 4.12117187 7.77023438 4.24234375 7.13671875 4.3671875 C6.32847656 4.53476563 5.52023438 4.70234375 4.6875 4.875 C3.88699219 5.03742188 3.08648437 5.19984375 2.26171875 5.3671875 C-0.25301118 5.94478999 -0.25301118 5.94478999 -3 8 C-3.33 7.67 -3.66 7.34 -4 7 C-4.33 7.66 -4.66 8.32 -5 9 C-6.32 8.67 -7.64 8.34 -9 8 C-8.01 8 -7.02 8 -6 8 C-6 7.01 -6 6.02 -6 5 C-4.35 4.67 -2.7 4.34 -1 4 C-0.67 2.68 -0.34 1.36 0 0 Z " fill="#171717" transform="translate(49,154)"/>
<path d="M0 0 C0.33 0 0.66 0 1 0 C1.33 4.62 1.66 9.24 2 14 C2.99 13.67 3.98 13.34 5 13 C6.34261242 19.46895075 6.34261242 19.46895075 4.75 21.9375 C3 23 3 23 0 23 C0 15.41 0 7.82 0 0 Z " fill="#3B3B3B" transform="translate(76,152)"/>
<path d="M0 0 C0.33 1.32 0.66 2.64 1 4 C-0.32 4 -1.64 4 -3 4 C-3.226875 4.78375 -3.45375 5.5675 -3.6875 6.375 C-5 9 -5 9 -7.4375 10.25 C-8.283125 10.4975 -9.12875 10.745 -10 11 C-11.6687617 11.5562539 -13.33650958 12.11567517 -15 12.6875 C-17 13 -17 13 -20 11 C-19.09636719 10.67386719 -18.19273438 10.34773438 -17.26171875 10.01171875 C-16.08222656 9.57472656 -14.90273437 9.13773438 -13.6875 8.6875 C-11.92986328 8.04361328 -11.92986328 8.04361328 -10.13671875 7.38671875 C-7.30510538 6.13488469 -6.01535072 5.22406018 -4 3 C-3.34 3 -2.68 3 -2 3 C-2 2.34 -2 1.68 -2 1 C-1.34 0.67 -0.68 0.34 0 0 Z " fill="#19224A" transform="translate(143,114)"/>
<path d="M0 0 C1.32 0 2.64 0 4 0 C4.33 1.32 4.66 2.64 5 4 C6.65 4 8.3 4 10 4 C10.66 5.65 11.32 7.3 12 9 C13.32 9 14.64 9 16 9 C16.33 10.65 16.66 12.3 17 14 C14.5625 13.1875 14.5625 13.1875 12 12 C11.67 11.01 11.34 10.02 11 9 C9.15028304 7.94978897 9.15028304 7.94978897 7 7 C4.75 5.5 4.75 5.5 3 4 C3 3.34 3 2.68 3 2 C2.01 1.67 1.02 1.34 0 1 C0 0.67 0 0.34 0 0 Z " fill="#161F44" transform="translate(101,91)"/>
<path d="M0 0 C9.41002278 -0.3690205 9.41002278 -0.3690205 14 2 C14 2.33 14 2.66 14 3 C15.65 3.33 17.3 3.66 19 4 C19.33 5.98 19.66 7.96 20 10 C18.02 9.01 16.04 8.02 14 7 C14 6.34 14 5.68 14 5 C13.32453125 4.80664062 12.6490625 4.61328125 11.953125 4.4140625 C10.61507812 4.02347656 10.61507812 4.02347656 9.25 3.625 C8.36828125 3.36976562 7.4865625 3.11453125 6.578125 2.8515625 C4.23919428 2.0790066 2.16557438 1.16374324 0 0 Z " fill="#161D40" transform="translate(124,40)"/>
<path d="M0 0 C0.66 0.99 1.32 1.98 2 3 C1.21625 4.010625 0.4325 5.02125 -0.375 6.0625 C-2.94322061 9.65217199 -4.15174118 12.67388003 -5 17 C-4.67 17.66 -4.34 18.32 -4 19 C-4.99 19 -5.98 19 -7 19 C-8.61280196 14.16159413 -7.08278381 11.48599591 -5 7 C-4.855625 6.071875 -4.71125 5.14375 -4.5625 4.1875 C-4 2 -4 2 -1.9375 0.6875 C-1.298125 0.460625 -0.65875 0.23375 0 0 Z " fill="#13192F" transform="translate(80,49)"/>
<path d="M0 0 C1 3 1 3 -0.21484375 5.69921875 C-0.78332031 6.68535156 -1.35179687 7.67148438 -1.9375 8.6875 C-2.78634766 10.17830078 -2.78634766 10.17830078 -3.65234375 11.69921875 C-4.09707031 12.45847656 -4.54179687 13.21773437 -5 14 C-5.66 13.34 -6.32 12.68 -7 12 C-7 11.01 -7 10.02 -7 9 C-8.98 9.33 -10.96 9.66 -13 10 C-10.00148306 8.0009887 -6.93730443 6.15642479 -3.83984375 4.31640625 C-1.7204363 2.96404982 -1.7204363 2.96404982 0 0 Z " fill="#6577BE" transform="translate(150,98)"/>
<path d="M0 0 C0.33 1.32 0.66 2.64 1 4 C1.66 3.67 2.32 3.34 3 3 C4.99960012 2.960008 7.00047242 2.95653201 9 3 C8.01 3.66 7.02 4.32 6 5 C4.66150329 5.99307821 3.32848691 6.99357052 2 8 C-0.30137058 9.74346256 -2.5951753 11.39678353 -5 13 C-4.39254603 8.14036821 -2.27241033 4.2594482 0 0 Z " fill="#6974B5" transform="translate(79,54)"/>
<path d="M0 0 C1.98 0 3.96 0 6 0 C6.33 1.98 6.66 3.96 7 6 C8.98 6.66 10.96 7.32 13 8 C12.34 8.66 11.68 9.32 11 10 C11 9.34 11 8.68 11 8 C9.68 8 8.36 8 7 8 C7.33 10.64 7.66 13.28 8 16 C7.67 16 7.34 16 7 16 C6.67 18.31 6.34 20.62 6 23 C5.67 23 5.34 23 5 23 C5 15.74 5 8.48 5 1 C3.35 1 1.7 1 0 1 C0 0.67 0 0.34 0 0 Z " fill="#060606" transform="translate(72,151)"/>
<path d="M0 0 C2.0625 0.4375 2.0625 0.4375 4 1 C2.58531689 1.96125903 1.1681636 2.91888325 -0.25 3.875 C-1.03890625 4.40867187 -1.8278125 4.94234375 -2.640625 5.4921875 C-7.15366973 8.37635185 -9.79455291 9.24359668 -15.25 9.125 C-16.32765625 9.10695313 -17.4053125 9.08890625 -18.515625 9.0703125 C-19.33546875 9.04710938 -20.1553125 9.02390625 -21 9 C-21 8.67 -21 8.34 -21 8 C-17.7 8 -14.4 8 -11 8 C-11 7.34 -11 6.68 -11 6 C-7.82764843 3.82467321 -4.5710199 2.38872996 -1 1 C-0.67 0.67 -0.34 0.34 0 0 Z " fill="#182248" transform="translate(145,100)"/>
<path d="M0 0 C3 0.1875 3 0.1875 5 1.1875 C5 2.1775 5 3.1675 5 4.1875 C3.02 4.1875 1.04 4.1875 -1 4.1875 C-0.67 5.5075 -0.34 6.8275 0 8.1875 C-1.65 7.8575 -3.3 7.5275 -5 7.1875 C-5.125 4.8125 -5.125 4.8125 -5 2.1875 C-3 0.1875 -3 0.1875 0 0 Z " fill="#EFEFEF" transform="translate(186,158.8125)"/>
<path d="M0 0 C1.32 0.33 2.64 0.66 4 1 C5.125 7.625 5.125 7.625 4 11 C1.4375 12.1875 1.4375 12.1875 -1 13 C-0.505 11.6078125 -0.505 11.6078125 0 10.1875 C1.14967004 7.07970709 1.14967004 7.07970709 1 4 C-0.65 4.33 -2.3 4.66 -4 5 C-4 4.34 -4 3.68 -4 3 C-3.01 3 -2.02 3 -1 3 C-0.67 2.01 -0.34 1.02 0 0 Z " fill="#11162D" transform="translate(148,96)"/>
<path d="M0 0 C0.66 0.33 1.32 0.66 2 1 C1.04901734 2.98270912 0.08899297 4.96108379 -0.875 6.9375 C-1.40867188 8.03964844 -1.94234375 9.14179687 -2.4921875 10.27734375 C-4 13 -4 13 -6 14 C-5.67 12.02 -5.34 10.04 -5 8 C-6.32 7.67 -7.64 7.34 -9 7 C-8.071875 6.401875 -7.14375 5.80375 -6.1875 5.1875 C-3.79745282 3.54727155 -1.91529747 2.1281083 0 0 Z " fill="#6675B5" transform="translate(189,55)"/>
<path d="M0 0 C1.07314453 0.00322266 2.14628906 0.00644531 3.25195312 0.00976562 C4.37150391 0.01814453 5.49105469 0.02652344 6.64453125 0.03515625 C8.34125977 0.04192383 8.34125977 0.04192383 10.07226562 0.04882812 C12.86724052 0.06062127 15.66210945 0.07707975 18.45703125 0.09765625 C18.45703125 0.42765625 18.45703125 0.75765625 18.45703125 1.09765625 C17.22726563 1.14664063 15.9975 1.195625 14.73046875 1.24609375 C13.09763559 1.32116654 11.46482413 1.3967124 9.83203125 1.47265625 C9.02378906 1.50359375 8.21554688 1.53453125 7.3828125 1.56640625 C2.70966783 1.79436453 -1.11585542 2.46384061 -5.54296875 4.09765625 C-8.91796875 4.22265625 -8.91796875 4.22265625 -11.54296875 4.09765625 C-8.03086195 0.25106308 -5.06798247 -0.02681472 0 0 Z " fill="#6D86E5" transform="translate(101.54296875,40.90234375)"/>
<path d="M0 0 C0.99 0 1.98 0 3 0 C4.03115279 3.26913624 3.9638984 5.86041348 3.5625 9.25 C3.46066406 10.14203125 3.35882813 11.0340625 3.25390625 11.953125 C3.12822266 12.96632812 3.12822266 12.96632812 3 14 C2.01 14 1.02 14 0 14 C0 9.38 0 4.76 0 0 Z " fill="#F4F4F4" transform="translate(112,160)"/>
<path d="M0 0 C6.36363636 -0.48951049 6.36363636 -0.48951049 9.4375 1.875 C11 4 11 4 11 6 C11.99 6 12.98 6 14 6 C14.33 7.65 14.66 9.3 15 11 C8.125 7.375 8.125 7.375 7 4 C5.35448038 3.28272222 3.68577711 2.61674772 2 2 C1.34 1.34 0.68 0.68 0 0 Z " fill="#6A7ACA" transform="translate(65,102)"/>
<path d="M0 0 C0.66 0.33 1.32 0.66 2 1 C1.01 1.33 0.02 1.66 -1 2 C-0.67 2.99 -0.34 3.98 0 5 C-2.10409639 5.02701408 -4.20829178 5.04640223 -6.3125 5.0625 C-7.48425781 5.07410156 -8.65601563 5.08570312 -9.86328125 5.09765625 C-13 5 -13 5 -16 4 C-16 3.34 -16 2.68 -16 2 C-15.01257813 1.93941406 -14.02515625 1.87882812 -13.0078125 1.81640625 C-11.72648438 1.73261719 -10.44515625 1.64882812 -9.125 1.5625 C-7.84882813 1.48128906 -6.57265625 1.40007812 -5.2578125 1.31640625 C-2.11699848 1.20793973 -2.11699848 1.20793973 0 0 Z " fill="#697DCE" transform="translate(178,63)"/>
<path d="M0 0 C-1.29096781 0.81360995 -2.58279875 1.62585046 -3.875 2.4375 C-4.59429687 2.88996094 -5.31359375 3.34242187 -6.0546875 3.80859375 C-9.93895694 6.18751379 -12.54115053 6.10417136 -17.125 6.0625 C-18.40632812 6.05347656 -19.68765625 6.04445313 -21.0078125 6.03515625 C-22.48894531 6.01775391 -22.48894531 6.01775391 -24 6 C-24 5.67 -24 5.34 -24 5 C-22.50146484 4.81824219 -22.50146484 4.81824219 -20.97265625 4.6328125 C-19.68230469 4.46523438 -18.39195312 4.29765625 -17.0625 4.125 C-15.13083984 3.88136719 -15.13083984 3.88136719 -13.16015625 3.6328125 C-11.59587891 3.31957031 -11.59587891 3.31957031 -10 3 C-9.67 2.34 -9.34 1.68 -9 1 C-3.6407767 -1.21359223 -3.6407767 -1.21359223 0 0 Z " fill="#111D40" transform="translate(186,59)"/>
<path d="M0 0 C0.33 0 0.66 0 1 0 C1 5.28 1 10.56 1 16 C0.01 16 -0.98 16 -2 16 C-2.99967079 13.00098764 -3.03325535 11.62269291 -2.6875 8.5625 C-2.60886719 7.80066406 -2.53023437 7.03882813 -2.44921875 6.25390625 C-1.97743689 3.88679203 -1.17165677 2.09941765 0 0 Z " fill="#F8F8F8" transform="translate(144,158)"/>
<path d="M0 0 C1.2375 0.185625 2.475 0.37125 3.75 0.5625 C6.76279577 0.94711223 9.10010827 1.0874594 12 0 C11.625 1.9375 11.625 1.9375 11 4 C7.98675805 5.50662097 5.31713623 5.17770373 2 5 C1.34 4.34 0.68 3.68 0 3 C0 2.01 0 1.02 0 0 Z " fill="#E7E7E7" transform="translate(151,170)"/>
<path d="M0 0 C0.66 0.33 1.32 0.66 2 1 C1.67 3.64 1.34 6.28 1 9 C0.01 9 -0.98 9 -2 9 C-2 9.66 -2 10.32 -2 11 C-2.66 11 -3.32 11 -4 11 C-4 8.36 -4 5.72 -4 3 C-2.68 3 -1.36 3 0 3 C0 2.01 0 1.02 0 0 Z " fill="#0E0E0E" transform="translate(44,160)"/>
<path d="M0 0 C1.32 0 2.64 0 4 0 C3.125 4.875 3.125 4.875 2 6 C1.76346477 8.52596259 1.57826308 11.03107207 1.4375 13.5625 C1.39431641 14.27341797 1.35113281 14.98433594 1.30664062 15.71679688 C1.20028223 17.47761912 1.09961154 19.2387832 1 21 C1.99 21.33 2.98 21.66 4 22 C2.68 22 1.36 22 0 22 C0 14.74 0 7.48 0 0 Z " fill="#9D9D9D" transform="translate(65,153)"/>
<path d="M0 0 C5.32891144 1.02479066 9.09793241 2.78933034 12.375 7.1875 C12.91125 8.115625 13.4475 9.04375 14 10 C8.03868848 8.65870491 4.19807984 5.25135496 0 1 C0 0.67 0 0.34 0 0 Z " fill="#151F41" transform="translate(148,54)"/>
<path d="M0 0 C3.24992446 -0.05819424 6.49971435 -0.09366116 9.75 -0.125 C10.67039062 -0.14175781 11.59078125 -0.15851563 12.5390625 -0.17578125 C13.42851563 -0.18222656 14.31796875 -0.18867187 15.234375 -0.1953125 C16.05131836 -0.20578613 16.86826172 -0.21625977 17.70996094 -0.22705078 C20.21887518 0.02170084 21.83395625 0.74299871 24 2 C24 2.66 24 3.32 24 4 C23.44054687 3.86722656 22.88109375 3.73445313 22.3046875 3.59765625 C14.90649974 1.96815187 7.55429188 1.41363558 0 1 C0 0.67 0 0.34 0 0 Z " fill="#19224B" transform="translate(68,82)"/>
<path d="M0 0 C0.78375 0.33 1.5675 0.66 2.375 1 C4.84332497 2.11866511 4.84332497 2.11866511 7 2 C6.34 3.98 5.68 5.96 5 8 C3.68 8 2.36 8 1 8 C-0.35439668 5.29120665 -0.06501451 2.99066732 0 0 Z " fill="#E9E9E9" transform="translate(92,166)"/>
<path d="M0 0 C1.67542976 0.28604898 3.34385343 0.61781233 5 1 C5.38218767 2.65614657 5.71395102 4.32457024 6 6 C5 7 5 7 2.4375 7.0625 C1.2309375 7.0315625 1.2309375 7.0315625 0 7 C-0.38133299 5.0085944 -0.71325582 3.00720923 -1 1 C-0.67 0.67 -0.34 0.34 0 0 Z " fill="#151515" transform="translate(135,164)"/>
<path d="M0 0 C1.32 0 2.64 0 4 0 C4 1.65 4 3.3 4 5 C2.02 5.66 0.04 6.32 -2 7 C-2.66 6.34 -3.32 5.68 -4 5 C-4 4.01 -4 3.02 -4 2 C-2.68 2.33 -1.36 2.66 0 3 C0 2.01 0 1.02 0 0 Z " fill="#727272" transform="translate(104,153)"/>
<path d="M0 0 C-0.33 1.32 -0.66 2.64 -1 4 C-3.58281836 4.22224251 -6.16522187 4.42823488 -8.75 4.625 C-9.47960937 4.68945312 -10.20921875 4.75390625 -10.9609375 4.8203125 C-14.85911736 5.10381649 -17.70645322 5.27081383 -21 3 C-19.948125 2.92652344 -19.948125 2.92652344 -18.875 2.8515625 C-12.65399098 2.36131994 -6.08562484 0 0 0 Z " fill="#7183E1" transform="translate(143,107)"/>
<path d="M0 0 C1.98 0.99 1.98 0.99 4 2 C4 2.66 4 3.32 4 4 C4.53625 4.268125 5.0725 4.53625 5.625 4.8125 C8.41666667 6.20833333 11.20833333 7.60416667 14 9 C14 9.33 14 9.66 14 10 C11.69 9.67 9.38 9.34 7 9 C6.67 8.01 6.34 7.02 6 6 C2.99152582 4.77479736 2.99152582 4.77479736 0 4 C0 2.68 0 1.36 0 0 Z " fill="#697BC6" transform="translate(148,55)"/>
<path d="M0 0 C0.33 0 0.66 0 1 0 C1 2.31 1 4.62 1 7 C-3.455 7.495 -3.455 7.495 -8 8 C-8 7.01 -8 6.02 -8 5 C-7.236875 4.731875 -6.47375 4.46375 -5.6875 4.1875 C-3.11044096 3.04879949 -1.85886437 2.04475081 0 0 Z " fill="#F5F5F5" transform="translate(60,167)"/>
<path d="M0 0 C0.61746094 0.34933594 1.23492187 0.69867188 1.87109375 1.05859375 C7.74820798 4.21631266 12.3344493 5.67747335 19 6 C19 6.33 19 6.66 19 7 C17.08364783 7.05423638 15.16685075 7.09289963 13.25 7.125 C11.64898437 7.15980469 11.64898437 7.15980469 10.015625 7.1953125 C7.07529894 7.00487687 5.47638122 6.52670104 3 5 C3 4.34 3 3.68 3 3 C2.01 3 1.02 3 0 3 C0 2.01 0 1.02 0 0 Z " fill="#6475C1" transform="translate(114,103)"/>
<path d="M0 0 C2.77744395 2.77744395 2.53698444 5.16358534 3 9 C3.30903983 10.33917261 3.62942911 11.67653254 4 13 C2.68 13.33 1.36 13.66 0 14 C0 9.38 0 4.76 0 0 Z " fill="#0A0A0A" transform="translate(146,161)"/>
<path d="M0 0 C1.76923828 0.01353516 1.76923828 0.01353516 3.57421875 0.02734375 C4.47785156 0.03894531 5.38148437 0.05054688 6.3125 0.0625 C6.3125 0.3925 6.3125 0.7225 6.3125 1.0625 C-0.00722924 2.25906638 -6.29544144 3.33887073 -12.6875 4.0625 C-8.86259178 -0.1266852 -5.49675584 -0.05442333 0 0 Z " fill="#131F48" transform="translate(94.6875,56.9375)"/>
<path d="M0 0 C1.32 0 2.64 0 4 0 C4 0.66 4 1.32 4 2 C4.66 2.33 5.32 2.66 6 3 C6 4.32 6 5.64 6 7 C1.125 6.125 1.125 6.125 0 5 C-0.04063832 3.33382885 -0.042721 1.66611905 0 0 Z " fill="#191919" transform="translate(152,164)"/>
<path d="M0 0 C1.134375 0.020625 2.26875 0.04125 3.4375 0.0625 C4.0975 1.3825 4.7575 2.7025 5.4375 4.0625 C3.1275 3.7325 0.8175 3.4025 -1.5625 3.0625 C-1.8925 4.0525 -2.2225 5.0425 -2.5625 6.0625 C-3.2225 4.4125 -3.8825 2.7625 -4.5625 1.0625 C-3.5625 0.0625 -3.5625 0.0625 0 0 Z " fill="#D7D7D7" transform="translate(171.5625,158.9375)"/>
<path d="M0 0 C4.82596069 3.15422267 9.57557408 6.28919117 14 10 C8.95470146 9.25804433 4.61604623 7.77765085 1.125 3.9375 C0 2 0 2 0 0 Z " fill="#0B1437" transform="translate(118,70)"/>
<path d="M0 0 C0.66 0 1.32 0 2 0 C2 0.66 2 1.32 2 2 C2.721875 2.20625 3.44375 2.4125 4.1875 2.625 C7.9255306 4.45248163 9.49246917 6.70438806 12 10 C11.01 10.495 11.01 10.495 10 11 C8.29159719 9.36587557 7.06546953 8.13093906 6 6 C4.68 6 3.36 6 2 6 C1.34 4.02 0.68 2.04 0 0 Z " fill="#6577C1" transform="translate(136,45)"/>
<path d="M0 0 C0.66 0.33 1.32 0.66 2 1 C-3.75 5 -3.75 5 -6 5 C-6 5.66 -6 6.32 -6 7 C-8 8.625 -8 8.625 -10 10 C-10 8.35 -10 6.7 -10 5 C-8.38007835 4.13624104 -6.75388139 3.28424146 -5.125 2.4375 C-4.22007813 1.96183594 -3.31515625 1.48617187 -2.3828125 0.99609375 C-1.20332031 0.50302734 -1.20332031 0.50302734 0 0 Z " fill="#0D1432" transform="translate(92,41)"/>
<path d="M0 0 C2.97 0.99 5.94 1.98 9 3 C9 3.99 9 4.98 9 6 C7.35 6 5.7 6 4 6 C4 5.34 4 4.68 4 4 C3.01 4.33 2.02 4.66 1 5 C0.67 3.35 0.34 1.7 0 0 Z " fill="#222222" transform="translate(165,166)"/>
<path d="M0 0 C-1.57967807 0.67528223 -3.16391903 1.33989694 -4.75 2 C-6.07257813 2.556875 -6.07257813 2.556875 -7.421875 3.125 C-10 4 -10 4 -14 4 C-14 3.01 -14 2.02 -14 1 C-12.41913952 0.63495397 -10.83516093 0.28339494 -9.25 -0.0625 C-8.36828125 -0.25972656 -7.4865625 -0.45695312 -6.578125 -0.66015625 C-4.01320972 -0.99825872 -2.42908361 -0.81158635 0 0 Z " fill="#697BC1" transform="translate(174,78)"/>
<path d="M0 0 C2.00720923 0.28674418 4.0085944 0.61866701 6 1 C6 2.32 6 3.64 6 5 C4.02 5 2.04 5 0 5 C-0.5625 3.0625 -0.5625 3.0625 -1 1 C-0.67 0.67 -0.34 0.34 0 0 Z " fill="#C5C5C5" transform="translate(38,170)"/>
<path d="M0 0 C1.32 0 2.64 0 4 0 C4.33 2.31 4.66 4.62 5 7 C4.01 7.33 3.02 7.66 2 8 C0.74335022 5.09399739 0 3.20395416 0 0 Z " fill="#D1D1D1" transform="translate(79,159)"/>
<path d="M0 0 C1.32 0 2.64 0 4 0 C4 1.98 4 3.96 4 6 C3.34 6 2.68 6 2 6 C1.67 6.66 1.34 7.32 1 8 C0.34 7.67 -0.32 7.34 -1 7 C-0.67 4.69 -0.34 2.38 0 0 Z " fill="#E2E2E2" transform="translate(88,159)"/>
<path d="M0 0 C0.33 0 0.66 0 1 0 C1.125 2.875 1.125 2.875 1 6 C-1 8 -1 8 -3.625 8.125 C-4.40875 8.08375 -5.1925 8.0425 -6 8 C-6.33 6.68 -6.66 5.36 -7 4 C-5.68 4.33 -4.36 4.66 -3 5 C-2.67 4.34 -2.34 3.68 -2 3 C-1.34 3 -0.68 3 0 3 C0 2.01 0 1.02 0 0 Z " fill="#2C2C2C" transform="translate(57,164)"/>
<path d="M0 0 C0.99 0.33 1.98 0.66 3 1 C3 1.99 3 2.98 3 4 C3.99 4.33 4.98 4.66 6 5 C6.33 5.99 6.66 6.98 7 8 C1.125 6.125 1.125 6.125 0 5 C-0.04063832 3.33382885 -0.042721 1.66611905 0 0 Z " fill="#DFDFDF" transform="translate(166,161)"/>
<path d="M0 0 C2 2 2 2 2.125 4.625 C2.08375 5.40875 2.0425 6.1925 2 7 C1.01 7.495 1.01 7.495 0 8 C0 8.99 0 9.98 0 11 C-0.99 11 -1.98 11 -3 11 C-2.69078116 9.54096742 -2.37751201 8.08279278 -2.0625 6.625 C-1.88847656 5.81289062 -1.71445313 5.00078125 -1.53515625 4.1640625 C-1 2 -1 2 0 0 Z " fill="#252525" transform="translate(101,161)"/>
<path d="M0 0 C1.65 0 3.3 0 5 0 C4.73958333 1.98567708 4.47916667 3.97135417 4.21875 5.95703125 C3.946767 8.15471706 3.946767 8.15471706 4 11 C3.34 10.67 2.68 10.34 2 10 C2 8.02 2 6.04 2 4 C1.34 4 0.68 4 0 4 C0 2.68 0 1.36 0 0 Z " fill="#323232" transform="translate(178,158)"/>
<path d="M0 0 C4.51013391 0.53060399 7.38378219 2.30886117 11 5 C11 5.33 11 5.66 11 6 C8.69 5.67 6.38 5.34 4 5 C4 4.34 4 3.68 4 3 C2.68 2.67 1.36 2.34 0 2 C0 1.34 0 0.68 0 0 Z " fill="#0D193A" transform="translate(101,58)"/>
<path d="M0 0 C2 2 2 2 2 5 C3.32 4.67 4.64 4.34 6 4 C6.66 5.32 7.32 6.64 8 8 C7.01 8.33 6.02 8.66 5 9 C2.20926367 7.20595522 0.37411049 5.93527623 -0.875 2.8125 C-0.91625 2.214375 -0.9575 1.61625 -1 1 C-0.67 0.67 -0.34 0.34 0 0 Z " fill="#6D84E5" transform="translate(136,46)"/>
<path d="M0 0 C0 0.99 0 1.98 0 3 C-3.375 3.1875 -3.375 3.1875 -7 3 C-7.66 2.01 -8.32 1.02 -9 0 C-5.62182575 -0.84454356 -3.32534757 -1.10844919 0 0 Z " fill="#6A7BDA" transform="translate(132,73)"/>
<path d="M0 0 C0.93423645 3.01031744 1.04449911 3.86650268 0 7 C-3.5625 8.1875 -3.5625 8.1875 -7 9 C-6.67 8.34 -6.34 7.68 -6 7 C-5.34 7 -4.68 7 -4 7 C-3.71125 6.401875 -3.4225 5.80375 -3.125 5.1875 C-2 3 -2 3 0 0 Z " fill="#181E41" transform="translate(185,66)"/>
<path d="M0 0 C0.99 0.33 1.98 0.66 3 1 C1.66667905 4.99996286 -0.4957827 5.83782337 -4 8 C-3.6875 5.125 -3.6875 5.125 -3 2 C-2.01 1.34 -1.02 0.68 0 0 Z " fill="#667DD0" transform="translate(179,69)"/>
<path d="M0 0 C2.1519437 3.22791555 2.20086443 4.28400809 2 8 C1.67 8 1.34 8 1 8 C0.67 10.31 0.34 12.62 0 15 C-0.33 15 -0.66 15 -1 15 C-1.02703381 13.06257659 -1.04641125 11.12504521 -1.0625 9.1875 C-1.07410156 8.10855469 -1.08570312 7.02960938 -1.09765625 5.91796875 C-1 3 -1 3 0 0 Z " fill="#0C0C0C" transform="translate(78,159)"/>
<path d="M0 0 C2.97 0.495 2.97 0.495 6 1 C6 1.99 6 2.98 6 4 C6.66 4.33 7.32 4.66 8 5 C4.79604584 5 2.90600261 4.25664978 0 3 C0 2.01 0 1.02 0 0 Z " fill="#313131" transform="translate(170,162)"/>
<path d="M0 0 C0 0.33 0 0.66 0 1 C-2.31 1.66 -4.62 2.32 -7 3 C-7 3.66 -7 4.32 -7 5 C-7.99 5.495 -7.99 5.495 -9 6 C-9.65555119 8.52733235 -9.65555119 8.52733235 -10 11 C-10.33 11 -10.66 11 -11 11 C-11.48076923 4.75 -11.48076923 4.75 -9.4375 1.5625 C-6.18129203 -0.5248128 -3.79004984 -0.2915423 0 0 Z " fill="#C7C7C7" transform="translate(56,159)"/>
<path d="M0 0 C-0.66 0 -1.32 0 -2 0 C-2 0.66 -2 1.32 -2 2 C-3.0725 2.28875 -4.145 2.5775 -5.25 2.875 C-8.09400364 3.72820109 -10.43508983 4.5636503 -13 6 C-12 3 -12 3 -10.29296875 1.796875 C-9.59816406 1.45140625 -8.90335938 1.1059375 -8.1875 0.75 C-7.50042969 0.39421875 -6.81335937 0.0384375 -6.10546875 -0.328125 C-3.64922558 -1.11193544 -2.39957614 -0.84119973 0 0 Z " fill="#111945" transform="translate(52,102)"/>
<path d="M0 0 C0.33 0.99 0.66 1.98 1 3 C-3.95 2.67 -8.9 2.34 -14 2 C-14 1.67 -14 1.34 -14 1 C-9.27616037 0.34843591 -4.78025483 -0.11950637 0 0 Z " fill="#5361A5" transform="translate(64,99)"/>
<path d="M0 0 C2.97 0.495 2.97 0.495 6 1 C6 2.32 6 3.64 6 5 C3.69 4.34 1.38 3.68 -1 3 C-0.67 2.01 -0.34 1.02 0 0 Z " fill="#292929" transform="translate(185,162)"/>
<path d="M0 0 C2.31 0 4.62 0 7 0 C7.66 1.32 8.32 2.64 9 4 C5.7 3.34 2.4 2.68 -1 2 C-0.67 1.34 -0.34 0.68 0 0 Z " fill="#F1F1F1" transform="translate(154,160)"/>
<path d="M0 0 C2.12508244 3.18762365 2.5020163 5.26512223 3 9 C2.34 9 1.68 9 1 9 C1 8.34 1 7.68 1 7 C0.01 7.33 -0.98 7.66 -2 8 C-1.34 5.36 -0.68 2.72 0 0 Z " fill="#242424" transform="translate(90,165)"/>
<path d="M0 0 C3 1 3 1 4 2 C4.99 2.33 5.98 2.66 7 3 C6.67 3.99 6.34 4.98 6 6 C4.35 6 2.7 6 1 6 C0.67 4.02 0.34 2.04 0 0 Z " fill="#1F1F36" transform="translate(33,106)"/>
<path d="M0 0 C0.33 0.66 0.66 1.32 1 2 C2.32 2 3.64 2 5 2 C5.33 3.65 5.66 5.3 6 7 C3.5625 6.3125 3.5625 6.3125 1 5 C0.1875 2.375 0.1875 2.375 0 0 Z " fill="#111C39" transform="translate(112,98)"/>
<path d="M0 0 C2.31 0 4.62 0 7 0 C7.66 1.32 8.32 2.64 9 4 C5.30581799 4 3.22163822 2.71820705 0 1 C0 0.67 0 0.34 0 0 Z " fill="#1B234C" transform="translate(92,86)"/>
<path d="M0 0 C4.75 0.75 4.75 0.75 7 3 C6.625 5.125 6.625 5.125 6 7 C5.566875 6.54625 5.13375 6.0925 4.6875 5.625 C2.89201658 3.79975666 2.89201658 3.79975666 0 2 C0 1.34 0 0.68 0 0 Z " fill="#2A2A2A" transform="translate(135,162)"/>
<path d="M0 0 C-0.33 0.66 -0.66 1.32 -1 2 C-3.5625 2.625 -3.5625 2.625 -6 3 C-6 3.66 -6 4.32 -6 5 C-6.66 5 -7.32 5 -8 5 C-8.33 5.99 -8.66 6.98 -9 8 C-8.64005447 5.3364031 -8.28838998 3.41816548 -6.75 1.1875 C-4.41988723 -0.39364795 -2.75498245 -0.22337696 0 0 Z " fill="#F3F3F3" transform="translate(139,160)"/>
<path d="M0 0 C0 0.33 0 0.66 0 1 C-1.423125 1.12375 -1.423125 1.12375 -2.875 1.25 C-6.10461791 1.65074923 -6.10461791 1.65074923 -7.375 4.0625 C-7.58125 4.701875 -7.7875 5.34125 -8 6 C-8.66 6 -9.32 6 -10 6 C-10 4.68 -10 3.36 -10 2 C-6.3558226 -0.4294516 -4.28758728 -0.16179575 0 0 Z " fill="#DEDEDE" transform="translate(160,159)"/>
<path d="M0 0 C3.465 1.485 3.465 1.485 7 3 C7 4.32 7 5.64 7 7 C6.34 7 5.68 7 5 7 C4.67 5.68 4.34 4.36 4 3 C2.35 2.67 0.7 2.34 -1 2 C-0.67 1.34 -0.34 0.68 0 0 Z " fill="#0D1325" transform="translate(101,88)"/>
<path d="M0 0 C0.66 0.33 1.32 0.66 2 1 C1.34 3.31 0.68 5.62 0 8 C-0.99 7.67 -1.98 7.34 -3 7 C-3.33 6.01 -3.66 5.02 -4 4 C-2.68 2.68 -1.36 1.36 0 0 Z " fill="#171A3B" transform="translate(80,61)"/>
<path d="M0 0 C0.33 0 0.66 0 1 0 C1.2295711 3.36704285 1.33943529 5.41370268 -0.375 8.375 C-0.91125 8.91125 -1.4475 9.4475 -2 10 C-2.66 10 -3.32 10 -4 10 C-2.66666667 6.66666667 -1.33333333 3.33333333 0 0 Z " fill="#11193C" transform="translate(190,56)"/>
<path d="M0 0 C0.66 0 1.32 0 2 0 C2.66 1.32 3.32 2.64 4 4 C3.01 5.32 2.02 6.64 1 8 C0.34 5.69 -0.32 3.38 -1 1 C-0.67 0.67 -0.34 0.34 0 0 Z " fill="#222222" transform="translate(84,160)"/>
<path d="M0 0 C0.66 0 1.32 0 2 0 C2 0.66 2 1.32 2 2 C4.31 2 6.62 2 9 2 C9 2.33 9 2.66 9 3 C3.375 5 3.375 5 0 5 C0 3.35 0 1.7 0 0 Z " fill="#1F1F1F" transform="translate(129,156)"/>
<path d="M0 0 C1 3 1 3 -0.4375 6.1875 C-1.2109375 7.5796875 -1.2109375 7.5796875 -2 9 C-2.66 9 -3.32 9 -4 9 C-3.46930939 5.17902761 -2.50298434 2.93828597 0 0 Z " fill="#6C78A6" transform="translate(150,98)"/>
<path d="M0 0 C4.43090471 1.20842856 6.98112756 2.51668565 10 6 C7.0625 5.625 7.0625 5.625 4 5 C3.67 4.34 3.34 3.68 3 3 C2.01 2.67 1.02 2.34 0 2 C0 1.34 0 0.68 0 0 Z " fill="#6F7ECD" transform="translate(92,87)"/>
<path d="M0 0 C-0.99 0 -1.98 0 -3 0 C-3.33 0.99 -3.66 1.98 -4 3 C-5.98 3 -7.96 3 -10 3 C-6.81859267 -0.48439851 -4.56758339 -1.41752588 0 0 Z " fill="#5F70B5" transform="translate(100,42)"/>
<path d="M0 0 C0.33 0.66 0.66 1.32 1 2 C1.66 2 2.32 2 3 2 C2.67 3.98 2.34 5.96 2 8 C1.34 7.67 0.68 7.34 0 7 C-0.6875 4 -0.6875 4 -1 1 C-0.67 0.67 -0.34 0.34 0 0 Z " fill="#0E0E0E" transform="translate(94,159)"/>
<path d="M0 0 C5.75 -0.125 5.75 -0.125 8 1 C8 1.99 8 2.98 8 4 C5.125 3.6875 5.125 3.6875 2 3 C1.34 2.01 0.68 1.02 0 0 Z " fill="#D8D8D8" transform="translate(183,159)"/>
<path d="M0 0 C1.134375 0.020625 2.26875 0.04125 3.4375 0.0625 C3.4375 0.7225 3.4375 1.3825 3.4375 2.0625 C0.7975 2.7225 -1.8425 3.3825 -4.5625 4.0625 C-4.5625 -0.28271095 -4.43767807 0.077854 0 0 Z " fill="#F4F4F4" transform="translate(53.5625,159.9375)"/>
<path d="M0 0 C0.33 0.99 0.66 1.98 1 3 C2.175625 2.690625 2.175625 2.690625 3.375 2.375 C4.674375 2.189375 4.674375 2.189375 6 2 C6.66 2.66 7.32 3.32 8 4 C5.36 4.33 2.72 4.66 0 5 C0 3.35 0 1.7 0 0 Z " fill="#0B0B0B" transform="translate(40,154)"/>
<path d="M0 0 C0.99 1.32 1.98 2.64 3 4 C1.68 5.32 0.36 6.64 -1 8 C-2.2077558 4.37673261 -1.54311128 3.35853631 0 0 Z " fill="#626CA3" transform="translate(37,102)"/>
<path d="M0 0 C1.65 1.65 3.3 3.3 5 5 C4.01 5.495 4.01 5.495 3 6 C0.375 5.0625 0.375 5.0625 -2 4 C-1.34 2.68 -0.68 1.36 0 0 Z " fill="#7082E8" transform="translate(66,97)"/>
<path d="M0 0 C1.32 0.66 2.64 1.32 4 2 C0.7 2 -2.6 2 -6 2 C-6 1.34 -6 0.68 -6 0 C-3.44901433 -1.27549283 -2.66705587 -0.86287102 0 0 Z " fill="#111222" transform="translate(168,62)"/>
<path d="M0 0 C0.99 0 1.98 0 3 0 C3.33 1.98 3.66 3.96 4 6 C2.0625 5.1875 2.0625 5.1875 0 4 C-0.33 3.01 -0.66 2.02 -1 1 C-0.67 0.67 -0.34 0.34 0 0 Z " fill="#111831" transform="translate(140,44)"/>
<path d="M0 0 C0.33 0 0.66 0 1 0 C1.33 2.31 1.66 4.62 2 7 C0.68 7.99 -0.64 8.98 -2 10 C-2.25 3.375 -2.25 3.375 0 0 Z " fill="#363636" transform="translate(128,165)"/>
<path d="M0 0 C1.85776765 3.13498292 2.20140476 5.37471432 2 9 C0.68 8.34 -0.64 7.68 -2 7 C-1.34 4.69 -0.68 2.38 0 0 Z " fill="#0D0D0D" transform="translate(164,162)"/>
<path d="M0 0 C0 1.65 0 3.3 0 5 C-0.99 5 -1.98 5 -3 5 C-3.33 3.68 -3.66 2.36 -4 1 C-2 0 -2 0 0 0 Z " fill="#0C0C0C" transform="translate(180,162)"/>
<path d="M0 0 C-0.33 1.32 -0.66 2.64 -1 4 C-1.66 3.67 -2.32 3.34 -3 3 C-3.33 3.66 -3.66 4.32 -4 5 C-5.32 4.67 -6.64 4.34 -8 4 C-7.01 4 -6.02 4 -5 4 C-5 3.01 -5 2.02 -5 1 C-3 0 -3 0 0 0 Z " fill="#3F3F3F" transform="translate(48,158)"/>
<path d="M0 0 C0.66 0.33 1.32 0.66 2 1 C0.29171079 3.10633718 -0.52148416 3.93801608 -3.26171875 4.29296875 C-4.06222656 4.25816406 -4.86273438 4.22335938 -5.6875 4.1875 C-6.49574219 4.16042969 -7.30398437 4.13335937 -8.13671875 4.10546875 C-8.75160156 4.07066406 -9.36648437 4.03585938 -10 4 C-10 3.67 -10 3.34 -10 3 C-6.97265625 2.26757812 -6.97265625 2.26757812 -3.9453125 1.53515625 C-1.9414343 1.05153008 -1.9414343 1.05153008 0 0 Z " fill="#111521" transform="translate(170,81)"/>
<path d="M0 0 C-0.33 1.32 -0.66 2.64 -1 4 C-4.75 5.125 -4.75 5.125 -7 4 C-6.01 3.67 -5.02 3.34 -4 3 C-4 2.34 -4 1.68 -4 1 C-2 0 -2 0 0 0 Z " fill="#616FB9" transform="translate(90,45)"/>
<path d="M0 0 C0.99 0 1.98 0 3 0 C3.38218767 1.65614657 3.71395102 3.32457024 4 5 C3 6 3 6 0.4375 6.0625 C-0.7690625 6.0315625 -0.7690625 6.0315625 -2 6 C-0.68 4.68 0.64 3.36 2 2 C1.34 2 0.68 2 0 2 C0 1.34 0 0.68 0 0 Z " fill="#0D0D0D" transform="translate(137,165)"/>
<path d="M0 0 C1.485 0.99 1.485 0.99 3 2 C2.67 2.99 2.34 3.98 2 5 C1.34 5 0.68 5 0 5 C-0.33 5.66 -0.66 6.32 -1 7 C-1.04254356 5.00045254 -1.04080783 2.99958364 -1 1 C-0.67 0.67 -0.34 0.34 0 0 Z " fill="#171717" transform="translate(50,163)"/>
<path d="M0 0 C-1.6875 1.5625 -1.6875 1.5625 -4 3 C-6.75 2.6875 -6.75 2.6875 -9 2 C-4 -1.33333333 -4 -1.33333333 0 0 Z " fill="#6C7ACE" transform="translate(138,119)"/>
</svg>
